<svg xmlns="http://www.w3.org/2000/svg" xmlns:xlink="http://www.w3.org/1999/xlink" width="500" zoomAndPan="magnify" viewBox="0 0 375 374.999991" height="500" preserveAspectRatio="xMidYMid meet" version="1.0"><defs><clipPath id="86798a2ef1"><path d="M 2.363281 349.109375 L 366.910156 349.109375 L 366.910156 374.796875 L 2.363281 374.796875 Z M 2.363281 349.109375 " clip-rule="nonzero"/></clipPath><clipPath id="41a34b6aad"><path d="M 87 14.0625 L 177 14.0625 L 177 49 L 87 49 Z M 87 14.0625 " clip-rule="nonzero"/></clipPath></defs><path fill="#edf8ff" d="M 361.722656 361.464844 L 9.234375 361.464844 C 9.234375 361.464844 0.117188 312.253906 16.101562 285.066406 C 35.484375 252.105469 56.664062 265.195312 65.1875 251.929688 C 72.628906 240.34375 73.804688 205.984375 94.222656 185.214844 L 94.222656 243.929688 C 94.222656 245.726562 95.675781 247.175781 97.472656 247.175781 L 271.804688 247.175781 C 273.597656 247.175781 275.054688 245.726562 275.054688 243.929688 L 275.054688 207.746094 C 275.804688 207.722656 276.5625 207.707031 277.324219 207.707031 C 284.386719 207.707031 292.09375 208.855469 300.542969 211.710938 C 374.949219 236.855469 361.722656 361.464844 361.722656 361.464844 " fill-opacity="1" fill-rule="nonzero"/><g clip-path="url(#86798a2ef1)"><path fill="#c5eae2" d="M 2.363281 362.003906 C 2.363281 369.074219 83.972656 374.796875 184.636719 374.796875 C 285.304688 374.796875 366.910156 369.074219 366.910156 362.003906 C 366.910156 354.941406 285.304688 349.207031 184.636719 349.207031 C 83.972656 349.207031 2.363281 354.941406 2.363281 362.003906 " fill-opacity="1" fill-rule="nonzero"/></g><path fill="#dbf1ff" d="M 25.765625 91.28125 C 25.800781 90.394531 26 89.496094 26.371094 88.683594 C 26.667969 88.042969 27.0625 87.457031 27.65625 87.058594 C 29.675781 85.710938 32.964844 86.613281 33.933594 88.859375 C 34.042969 89.082031 34.351562 88.886719 34.257812 88.671875 C 33.738281 87.597656 33.664062 86.332031 33.894531 85.167969 C 34.097656 84.125 34.550781 83.109375 35.277344 82.324219 C 36.113281 81.417969 37.261719 80.972656 38.492188 81.050781 C 39.867188 81.136719 41.1875 81.8125 42.214844 82.707031 C 42.683594 83.113281 43.140625 83.554688 43.535156 84.035156 C 43.808594 84.367188 44.066406 84.742188 44.226562 85.148438 C 44.273438 85.386719 44.328125 85.621094 44.394531 85.851562 C 44.453125 86.046875 44.785156 86.019531 44.761719 85.800781 L 44.757812 85.753906 L 44.757812 85.746094 C 44.726562 85.511719 44.671875 85.289062 44.59375 85.078125 C 44.199219 83.105469 44.484375 80.980469 45.199219 79.117188 C 45.894531 77.3125 47.128906 75.539062 48.976562 74.777344 C 50.976562 73.949219 53.292969 74.527344 54.824219 76.011719 C 56.472656 77.609375 57.320312 79.921875 57.777344 82.125 C 58.039062 83.398438 58.1875 84.703125 58.074219 86.003906 C 57.925781 87.605469 57.480469 89.164062 57.40625 90.773438 C 57.398438 90.917969 57.566406 91.007812 57.6875 90.933594 C 58.269531 90.578125 58.871094 90.203125 59.535156 90.007812 C 60.222656 89.808594 60.925781 89.863281 61.566406 90.183594 C 62.605469 90.703125 63.621094 92.042969 63.394531 93.257812 C 63.351562 93.464844 63.621094 93.589844 63.734375 93.40625 C 64.269531 92.535156 64.863281 91.6875 65.59375 90.960938 C 66.226562 90.335938 67 89.773438 67.898438 89.628906 C 68.863281 89.472656 69.824219 89.890625 70.515625 90.550781 C 71.894531 91.859375 72.40625 94.097656 71.59375 95.84375 L 27.074219 95.84375 C 26.191406 94.5 25.703125 92.898438 25.765625 91.28125 " fill-opacity="1" fill-rule="nonzero"/><path fill="#dbf1ff" d="M 319.171875 78.945312 C 319.800781 77.058594 319.546875 74.464844 317.589844 73.460938 C 316.007812 72.652344 314.058594 73.253906 313.269531 74.84375 C 313.132812 75.117188 312.738281 74.882812 312.863281 74.613281 C 313.578125 73.085938 314.195312 70.691406 312.261719 69.769531 C 310.726562 69.039062 308.804688 70.171875 307.867188 71.484375 C 307.777344 71.625 307.695312 71.765625 307.597656 71.902344 C 307.429688 72.148438 307.050781 71.933594 307.191406 71.667969 C 308.8125 69.339844 309.636719 66.382812 309.6875 63.5625 C 309.730469 61.078125 309.097656 58.410156 307.148438 56.722656 C 305.097656 54.949219 302.078125 54.65625 299.644531 55.734375 C 297.066406 56.878906 295.128906 59.1875 293.816406 61.625 C 292.535156 63.996094 291.667969 66.769531 291.828125 69.488281 C 291.839844 69.75 291.414062 69.808594 291.367188 69.550781 C 291.121094 68.21875 290.78125 66.871094 290.160156 65.65625 C 289.621094 64.613281 288.863281 63.667969 287.804688 63.125 C 286.757812 62.578125 285.535156 62.488281 284.390625 62.726562 C 282.351562 63.148438 280.074219 64.566406 279.503906 66.679688 C 279.460938 66.925781 279.421875 67.171875 279.367188 67.410156 C 279.3125 67.667969 278.882812 67.613281 278.910156 67.347656 L 278.914062 67.289062 L 278.925781 67.242188 C 278.945312 67.058594 278.976562 66.878906 279.019531 66.703125 C 279.417969 64.304688 279.050781 61.773438 277.976562 59.589844 C 277.003906 57.617188 275.410156 55.859375 273.3125 55.058594 C 270.957031 54.164062 268.296875 54.601562 266.164062 55.882812 C 263.886719 57.25 262.304688 59.570312 261.859375 62.183594 C 261.289062 65.492188 262.945312 68.449219 264.046875 71.449219 C 264.117188 71.640625 263.871094 71.832031 263.703125 71.71875 C 262.261719 70.691406 260.519531 70.027344 258.875 71.039062 C 257.527344 71.871094 256.859375 73.523438 257.566406 74.992188 C 257.695312 75.261719 257.292969 75.5 257.160156 75.230469 C 256.628906 74.113281 255.796875 73.117188 254.601562 72.699219 C 252.761719 72.054688 250.699219 72.859375 249.386719 74.210938 C 247.945312 75.703125 247.5 77.828125 248.433594 79.703125 L 318.898438 79.625 C 319.003906 79.402344 319.097656 79.179688 319.171875 78.945312 " fill-opacity="1" fill-rule="nonzero"/><g clip-path="url(#41a34b6aad)"><path fill="#dbf1ff" d="M 89.226562 48.273438 C 88.121094 46.515625 87.617188 44.472656 87.867188 42.402344 C 88.082031 40.558594 89.0625 38.667969 90.90625 38.027344 C 93.617188 37.082031 97.867188 38.3125 98.648438 41.386719 C 98.765625 41.746094 99.304688 41.597656 99.214844 41.230469 C 98.71875 39.71875 98.507812 38.03125 98.792969 36.453125 C 99.039062 35.09375 99.710938 33.796875 101.011719 33.195312 C 102.183594 32.65625 103.574219 32.75 104.789062 33.082031 C 106.828125 33.632812 109.195312 35.058594 110.128906 37.109375 C 110.222656 37.441406 110.335938 37.769531 110.449219 38.09375 C 110.582031 38.441406 111.085938 38.308594 111.011719 37.9375 C 110.945312 37.597656 110.832031 37.277344 110.695312 36.96875 C 110.164062 35.144531 109.988281 33.214844 110.183594 31.324219 C 110.386719 29.363281 111.019531 27.371094 112.261719 25.824219 C 113.660156 24.089844 115.726562 23.101562 117.933594 22.976562 C 120.503906 22.832031 123.113281 23.699219 125.226562 25.164062 C 126.199219 25.835938 127.152344 26.613281 127.945312 27.5 C 128.386719 27.992188 128.808594 28.558594 129.09375 29.171875 C 129.175781 29.761719 129.304688 30.339844 129.488281 30.910156 C 129.601562 31.222656 130.054688 31.167969 130.0625 30.832031 C 130.082031 30.191406 129.925781 29.585938 129.664062 29.023438 C 129.328125 26.300781 130.117188 23.375 131.28125 20.988281 C 132.5625 18.375 134.648438 15.734375 137.554688 14.910156 C 140.527344 14.074219 143.519531 15.628906 145.5 17.808594 C 147.742188 20.289062 149.035156 23.574219 149.769531 26.800781 C 150.472656 29.921875 150.738281 33.28125 150.121094 36.441406 C 150.050781 36.804688 150.578125 36.960938 150.683594 36.59375 C 151.347656 34.195312 152.3125 31.8125 153.789062 29.792969 C 155.015625 28.113281 156.75 26.652344 158.882812 26.4375 C 161.222656 26.199219 163.648438 27.339844 165.210938 29.058594 C 168.316406 32.464844 167.847656 37.835938 165.820312 41.660156 C 165.640625 42 166.097656 42.246094 166.328125 41.953125 C 167.183594 40.820312 168.378906 39.945312 169.804688 39.71875 C 171.949219 39.367188 174.183594 40.542969 175.371094 42.320312 C 175.957031 43.191406 176.304688 44.214844 176.261719 45.269531 C 176.210938 46.503906 175.621094 47.601562 174.792969 48.480469 C 174.734375 48.550781 174.707031 48.625 174.714844 48.691406 L 89.511719 48.691406 C 89.417969 48.550781 89.320312 48.417969 89.226562 48.273438 " fill-opacity="1" fill-rule="nonzero"/></g><path fill="#a2ddd0" d="M 40.230469 362.464844 C 40.230469 362.464844 52.9375 343.644531 44.839844 336.4375 C 39.878906 332.011719 37.449219 346.167969 37.449219 346.167969 C 37.449219 346.167969 34.632812 319.15625 25.476562 324.855469 C 21.007812 327.644531 30.40625 352.558594 30.40625 352.558594 C 30.40625 352.558594 23.71875 339.601562 18.4375 343.15625 C 9.914062 348.902344 30.226562 362.273438 30.226562 362.273438 L 40.230469 362.464844 " fill-opacity="1" fill-rule="nonzero"/><path fill="#e0fbf0" d="M 35.394531 362.371094 L 28.824219 331.777344 C 28.789062 331.613281 28.898438 331.445312 29.066406 331.40625 C 29.238281 331.371094 29.398438 331.480469 29.4375 331.644531 L 36.035156 362.386719 L 35.394531 362.371094 " fill-opacity="1" fill-rule="nonzero"/><path fill="#e0fbf0" d="M 31.898438 362.308594 L 19.800781 347.617188 C 19.691406 347.484375 19.710938 347.289062 19.84375 347.179688 C 19.980469 347.066406 20.175781 347.085938 20.285156 347.222656 L 32.722656 362.324219 L 31.898438 362.308594 " fill-opacity="1" fill-rule="nonzero"/><path fill="#e0fbf0" d="M 37.628906 362.417969 L 42.601562 340.003906 C 42.636719 339.832031 42.800781 339.726562 42.972656 339.765625 C 43.140625 339.800781 43.25 339.96875 43.210938 340.140625 L 38.265625 362.429688 L 37.628906 362.417969 " fill-opacity="1" fill-rule="nonzero"/><path fill="#a2ddd0" d="M 330.445312 361.277344 C 330.445312 361.277344 314.550781 332.195312 325.101562 328.492188 C 332.070312 326.050781 334.335938 353.25 334.335938 353.25 C 334.335938 353.25 334.960938 323.09375 344.207031 326.953125 C 351.1875 329.863281 341.863281 351.632812 341.863281 351.632812 C 341.863281 351.632812 351.992188 343.417969 353.273438 348.578125 C 355.304688 356.777344 343.644531 361.425781 343.644531 361.425781 L 330.445312 361.277344 " fill-opacity="1" fill-rule="nonzero"/><path fill="#e0fbf0" d="M 333.710938 361.3125 L 326.019531 337.214844 C 325.976562 337.082031 326.050781 336.941406 326.183594 336.898438 C 326.316406 336.859375 326.457031 336.929688 326.5 337.0625 L 334.246094 361.320312 L 333.710938 361.3125 " fill-opacity="1" fill-rule="nonzero"/><path fill="#e0fbf0" d="M 335.710938 361.339844 L 341.230469 335.066406 C 341.257812 334.929688 341.390625 334.839844 341.527344 334.871094 C 341.664062 334.902344 341.75 335.035156 341.722656 335.167969 L 336.230469 361.339844 L 335.710938 361.339844 " fill-opacity="1" fill-rule="nonzero"/><path fill="#e0fbf0" d="M 338.550781 361.367188 L 349.027344 352.355469 C 349.132812 352.265625 349.292969 352.28125 349.386719 352.386719 C 349.472656 352.492188 349.464844 352.648438 349.355469 352.738281 L 339.316406 361.375 L 338.550781 361.367188 " fill-opacity="1" fill-rule="nonzero"/><path fill="#a2ddd0" d="M 213.839844 368.261719 C 213.839844 368.261719 197.015625 336.640625 210.683594 336.972656 C 216.304688 337.113281 221.160156 362.253906 221.160156 362.253906 C 221.160156 362.253906 220.058594 339.3125 231.300781 342.914062 C 237.378906 344.859375 228.179688 362.253906 228.179688 362.253906 C 228.179688 362.253906 236.511719 351.023438 241.195312 354.214844 C 248.835938 359.410156 234.816406 368.347656 234.816406 368.347656 L 213.839844 368.261719 " fill-opacity="1" fill-rule="nonzero"/><path fill="#a2ddd0" d="M 206.460938 368.234375 C 206.460938 368.234375 203.496094 351.496094 196.980469 351.777344 C 192.320312 351.988281 196.527344 363.320312 200.476562 368.222656 C 200.476562 368.222656 206.28125 368.230469 206.460938 368.234375 " fill-opacity="1" fill-rule="nonzero"/><path fill="#e0fbf0" d="M 217.925781 368.273438 L 210.917969 343.496094 C 210.871094 343.332031 210.699219 343.234375 210.535156 343.277344 C 210.367188 343.324219 210.269531 343.5 210.316406 343.664062 L 217.277344 368.273438 L 217.925781 368.273438 " fill-opacity="1" fill-rule="nonzero"/><path fill="#e0fbf0" d="M 223.730469 368.300781 L 228.589844 348.246094 C 228.628906 348.082031 228.527344 347.910156 228.355469 347.867188 C 228.1875 347.835938 228.019531 347.933594 227.976562 348.097656 L 223.085938 368.300781 L 223.730469 368.300781 " fill-opacity="1" fill-rule="nonzero"/><path fill="#e0fbf0" d="M 203.386719 368.222656 L 198.90625 357.035156 C 198.839844 356.875 198.660156 356.796875 198.5 356.863281 C 198.335938 356.929688 198.257812 357.109375 198.320312 357.269531 L 202.710938 368.21875 L 203.386719 368.222656 " fill-opacity="1" fill-rule="nonzero"/><path fill="#e0fbf0" d="M 228.886719 368.328125 L 237.714844 358.378906 C 237.828125 358.253906 237.8125 358.054688 237.683594 357.9375 C 237.554688 357.820312 237.359375 357.835938 237.242188 357.96875 L 228.050781 368.324219 L 228.886719 368.328125 " fill-opacity="1" fill-rule="nonzero"/><path fill="#a2ddd0" d="M 293.617188 165.234375 C 288.523438 162.132812 282.109375 159.6875 275.910156 161.929688 C 270.878906 163.75 264.753906 167.09375 266.441406 173.363281 C 268.378906 180.535156 274.1875 185.457031 280.886719 187.070312 C 286.445312 188.410156 291.75 188.078125 295.335938 187.269531 C 299.667969 186.296875 304 185.320312 308.339844 184.34375 C 308.738281 184.246094 308.96875 183.722656 308.703125 183.402344 C 306.027344 180.210938 303.613281 176.835938 301.359375 173.292969 C 299.265625 170.015625 296.929688 167.246094 293.617188 165.234375 " fill-opacity="1" fill-rule="nonzero"/><path fill="#e0fbf0" d="M 308.320312 183.886719 C 305.570312 183.0625 302.808594 182.230469 300.195312 181.023438 C 299.984375 180.921875 299.765625 180.816406 299.554688 180.714844 C 300.105469 181.320312 300.652344 181.929688 301.164062 182.554688 C 301.816406 183.355469 302.351562 184.230469 302.667969 185.210938 C 302.773438 185.53125 302.28125 185.75 302.179688 185.425781 C 301.871094 184.449219 301.339844 183.609375 300.691406 182.824219 C 299.929688 181.910156 299.128906 181.046875 298.347656 180.164062 L 298.289062 180.039062 C 296.492188 179.039062 294.789062 177.878906 292.984375 176.890625 C 291.042969 175.824219 289.015625 174.933594 286.945312 174.15625 C 287.164062 176.6875 289.21875 178.761719 290.710938 180.648438 C 291.617188 181.789062 292.527344 182.9375 293.429688 184.082031 C 294.125 184.957031 294.839844 185.875 294.761719 187.054688 C 294.746094 187.398438 294.210938 187.332031 294.234375 186.996094 C 294.320312 185.589844 292.984375 184.375 292.179688 183.363281 C 291.246094 182.1875 290.316406 181.011719 289.386719 179.84375 C 288.011719 178.105469 286.527344 176.261719 286.402344 173.964844 C 283.367188 172.875 280.238281 172 277.144531 171.148438 C 276.121094 170.867188 275.105469 170.582031 274.074219 170.324219 C 276.257812 177.1875 280.542969 183.191406 286.484375 187.3125 C 286.773438 187.511719 286.449219 187.941406 286.167969 187.738281 C 280.042969 183.511719 275.640625 177.277344 273.46875 170.175781 C 271.359375 169.667969 269.230469 169.285156 267.046875 169.21875 C 266.707031 169.199219 266.769531 168.667969 267.113281 168.683594 C 267.917969 168.703125 268.710938 168.777344 269.503906 168.875 L 269.546875 168.851562 C 272.53125 167.039062 275.726562 165.625 279.085938 164.648438 C 282.433594 163.675781 286.359375 162.703125 289.796875 163.703125 C 290.125 163.800781 289.925781 164.296875 289.597656 164.203125 C 287.761719 163.667969 285.859375 163.8125 284 164.101562 C 282.332031 164.367188 280.683594 164.730469 279.066406 165.207031 C 276.015625 166.101562 273.085938 167.390625 270.339844 168.996094 C 271.4375 169.171875 272.523438 169.402344 273.597656 169.660156 C 273.695312 169.617188 273.808594 169.632812 273.871094 169.730469 C 274.449219 169.863281 275.011719 170.015625 275.585938 170.175781 C 276.753906 170.484375 277.925781 170.800781 279.09375 171.132812 C 281.519531 169.933594 284.015625 169.097656 286.695312 168.628906 C 289.65625 168.113281 292.644531 167.667969 295.617188 167.1875 C 295.957031 167.136719 296.039062 167.667969 295.699219 167.722656 C 292.820312 168.183594 289.941406 168.621094 287.070312 169.109375 C 284.546875 169.535156 282.183594 170.273438 279.878906 171.347656 C 281.253906 171.738281 282.617188 172.148438 283.988281 172.582031 C 284.839844 172.855469 285.6875 173.140625 286.535156 173.449219 C 286.648438 173.40625 286.804688 173.457031 286.878906 173.566406 C 288.488281 174.171875 290.070312 174.824219 291.605469 175.582031 L 291.632812 175.574219 C 293.378906 175.464844 294.875 174.507812 296.507812 173.992188 C 298.269531 173.433594 299.960938 173.660156 301.730469 174.054688 C 302.066406 174.128906 302.003906 174.664062 301.667969 174.582031 C 300.78125 174.386719 299.878906 174.191406 298.96875 174.167969 C 298.042969 174.144531 297.144531 174.324219 296.28125 174.632812 C 295.003906 175.09375 293.789062 175.75 292.449219 176.011719 C 294.796875 177.25 296.964844 178.804688 299.328125 180.007812 C 302.246094 181.496094 305.398438 182.453125 308.519531 183.390625 C 308.847656 183.496094 308.652344 183.992188 308.320312 183.886719 " fill-opacity="1" fill-rule="nonzero"/><path fill="#a2ddd0" d="M 313.808594 146.9375 C 317.917969 143.882812 321.414062 140.003906 323.726562 135.015625 C 326.128906 129.828125 327.304688 124.027344 328.453125 118.289062 C 328.625 117.390625 327.878906 116.40625 327.070312 116.847656 C 323.417969 118.839844 319.292969 116.980469 315.507812 115.894531 C 312.394531 115 309.265625 114.199219 306.105469 113.652344 C 299.710938 112.558594 293.160156 112.507812 287.097656 114.746094 C 283.832031 115.957031 280.859375 117.867188 278.257812 120.273438 C 277.085938 121.164062 275.945312 122.117188 274.894531 123.214844 C 269.304688 129 265.429688 137.984375 266.273438 147.03125 C 266.691406 151.546875 269.871094 152.640625 273.285156 153.964844 C 277.742188 155.695312 282.414062 156.605469 287.035156 156.632812 C 296.675781 156.699219 305.972656 152.765625 313.808594 146.9375 " fill-opacity="1" fill-rule="nonzero"/><path fill="#e0fbf0" d="M 289.460938 155.683594 C 287.511719 153.054688 284.597656 151.714844 281.363281 151.585938 C 279.53125 151.507812 277.855469 151.390625 276.140625 150.691406 C 274.496094 150.03125 272.996094 149.066406 271.515625 148.097656 C 274.113281 145.8125 276.777344 143.597656 279.644531 141.652344 C 279.722656 141.601562 279.792969 141.566406 279.871094 141.503906 C 288.320312 143.390625 293.9375 151.003906 302.210938 153.363281 C 302.816406 153.542969 303.132812 152.621094 302.53125 152.449219 C 294.523438 150.167969 289.019531 142.953125 280.992188 140.78125 C 284.488281 138.617188 288.242188 136.996094 292.128906 135.632812 C 293.4375 135.179688 294.746094 134.734375 296.054688 134.289062 C 298.21875 135.136719 299.992188 136.59375 301.9375 137.828125 C 303.632812 138.890625 305.425781 139.628906 307.390625 140.042969 C 311.320312 140.847656 315.378906 140.519531 319.300781 141.359375 C 319.910156 141.488281 320.234375 140.566406 319.621094 140.433594 C 315.769531 139.617188 311.804688 139.878906 307.945312 139.152344 C 305.675781 138.726562 303.695312 137.832031 301.777344 136.558594 C 300.347656 135.597656 298.960938 134.59375 297.425781 133.84375 C 301.8125 132.363281 306.191406 130.890625 310.441406 129.085938 C 315.660156 130.265625 321.34375 131.238281 326.003906 127.914062 C 326.519531 127.554688 325.878906 126.808594 325.378906 127.164062 C 321.394531 130 316.484375 129.394531 311.960938 128.429688 C 313.5625 127.714844 315.144531 126.949219 316.703125 126.105469 C 320.9375 123.820312 324.917969 121.066406 328.382812 117.707031 C 328.835938 117.273438 328.203125 116.523438 327.75 116.960938 C 322.738281 121.808594 316.710938 125.296875 310.359375 128.078125 C 310.125 128.023438 309.933594 128.148438 309.824219 128.3125 C 309.160156 128.605469 308.480469 128.875 307.804688 129.144531 C 308.109375 127.691406 308.582031 126.296875 309.1875 124.953125 C 310.542969 121.941406 312.507812 119.183594 314.425781 116.515625 C 314.796875 116 313.980469 115.445312 313.617188 115.957031 C 310.636719 120.109375 307.628906 124.445312 306.738281 129.574219 C 306.207031 129.78125 305.671875 129.988281 305.136719 130.1875 C 302.125 131.3125 299.042969 132.289062 295.976562 133.296875 L 295.917969 133.316406 C 294.269531 133.851562 292.636719 134.402344 291.015625 134.996094 C 290.824219 131.15625 292.863281 127.722656 294.890625 124.613281 C 297.113281 121.199219 299.046875 117.832031 300.082031 113.871094 C 300.238281 113.261719 299.320312 112.945312 299.15625 113.554688 C 298.578125 115.757812 297.769531 117.886719 296.679688 119.898438 C 295.609375 121.851562 294.300781 123.660156 293.132812 125.554688 C 291.289062 128.535156 289.816406 131.78125 290.0625 135.355469 C 286.648438 136.644531 283.324219 138.132812 280.230469 140.105469 C 278.289062 141.347656 276.449219 142.714844 274.660156 144.160156 C 273.265625 139.808594 275.613281 135.40625 277.664062 131.644531 C 279.828125 127.667969 281.410156 123.703125 281.558594 119.125 C 281.578125 118.496094 280.605469 118.421875 280.582031 119.050781 C 280.5 121.539062 280.050781 123.984375 279.171875 126.316406 C 278.207031 128.886719 276.730469 131.199219 275.496094 133.632812 C 273.746094 137.082031 272.519531 141.03125 273.859375 144.808594 C 271.886719 146.4375 269.976562 148.140625 268.074219 149.84375 C 267.605469 150.261719 268.234375 151.015625 268.707031 150.59375 C 269.382812 149.984375 270.070312 149.378906 270.753906 148.769531 C 273.449219 150.53125 276.257812 152.265625 279.558594 152.492188 C 281.324219 152.621094 283.027344 152.535156 284.707031 153.199219 C 286.328125 153.828125 287.683594 154.925781 288.710938 156.324219 C 289.085938 156.824219 289.828125 156.195312 289.460938 155.683594 " fill-opacity="1" fill-rule="nonzero"/><path fill="#a2ddd0" d="M 65.828125 128.691406 C 60.367188 129.496094 54.925781 130.011719 49.441406 130.113281 C 48.898438 130.125 48.574219 130.808594 48.832031 131.28125 C 51.597656 136.4375 54.363281 141.582031 57.136719 146.730469 C 59.429688 150.980469 63.671875 156.542969 69.800781 160.902344 C 77.1875 166.164062 87.09375 167.6875 95.890625 163.417969 C 103.578125 159.6875 101.632812 150.71875 99.101562 144.15625 C 95.976562 136.066406 88.007812 131.792969 80.53125 129.417969 C 75.667969 127.871094 70.894531 127.933594 65.828125 128.691406 " fill-opacity="1" fill-rule="nonzero"/><path fill="#e0fbf0" d="M 49.289062 130.914062 C 52.488281 132.925781 55.699219 134.953125 59.148438 136.507812 C 59.429688 136.636719 59.722656 136.75 60.011719 136.875 C 58.933594 136.855469 57.863281 136.832031 56.789062 136.867188 C 55.433594 136.910156 54.105469 137.128906 52.851562 137.667969 C 52.441406 137.84375 52.640625 138.519531 53.058594 138.335938 C 54.296875 137.808594 55.597656 137.597656 56.9375 137.566406 C 58.492188 137.535156 60.050781 137.582031 61.597656 137.597656 C 61.675781 137.601562 61.726562 137.582031 61.769531 137.554688 C 64.324219 138.46875 66.941406 139.175781 69.488281 140.109375 C 72.222656 141.109375 74.851562 142.367188 77.40625 143.757812 C 74.710938 145.710938 70.867188 145.460938 67.707031 145.601562 C 65.785156 145.695312 63.871094 145.765625 61.949219 145.863281 C 60.476562 145.929688 58.949219 146.011719 57.839844 147.101562 C 57.519531 147.421875 58.039062 147.898438 58.363281 147.585938 C 59.675781 146.289062 62.046875 146.570312 63.738281 146.492188 C 65.710938 146.398438 67.683594 146.308594 69.65625 146.214844 C 72.566406 146.085938 75.683594 145.96875 78.070312 144.113281 C 81.78125 146.1875 85.339844 148.535156 88.859375 150.882812 C 90.023438 151.65625 91.1875 152.429688 92.332031 153.222656 C 83.617188 156.988281 73.953125 157.898438 64.726562 155.554688 C 64.285156 155.4375 64.136719 156.132812 64.574219 156.242188 C 74.070312 158.664062 84.066406 157.664062 93 153.703125 C 95.324219 155.359375 97.546875 157.136719 99.5 159.242188 C 99.804688 159.574219 100.285156 159.050781 99.972656 158.714844 C 99.253906 157.945312 98.496094 157.214844 97.710938 156.507812 L 97.703125 156.4375 C 96.921875 151.921875 95.578125 147.519531 93.652344 143.347656 C 91.730469 139.183594 89.308594 134.445312 85.34375 131.894531 C 84.960938 131.640625 84.640625 132.273438 85.023438 132.519531 C 87.136719 133.878906 88.636719 135.890625 89.953125 138 C 91.128906 139.871094 92.1875 141.824219 93.109375 143.839844 C 94.851562 147.65625 96.101562 151.667969 96.867188 155.78125 C 95.753906 154.84375 94.589844 153.964844 93.402344 153.121094 C 93.355469 152.988281 93.25 152.890625 93.097656 152.910156 C 92.464844 152.457031 91.824219 152.023438 91.179688 151.585938 C 89.855469 150.691406 88.527344 149.808594 87.199219 148.925781 C 86.289062 145.480469 84.972656 142.285156 83.128906 139.230469 C 81.082031 135.835938 78.941406 132.492188 76.851562 129.121094 C 76.613281 128.738281 76.015625 129.109375 76.257812 129.496094 C 78.28125 132.753906 80.328125 135.984375 82.324219 139.257812 C 84.078125 142.136719 85.382812 145.121094 86.304688 148.339844 C 84.726562 147.3125 83.140625 146.300781 81.53125 145.320312 C 80.523438 144.710938 79.5 144.117188 78.476562 143.546875 C 78.40625 143.390625 78.230469 143.28125 78.046875 143.304688 C 76.074219 142.21875 74.050781 141.214844 71.972656 140.34375 L 71.957031 140.3125 C 70.558594 138.480469 70.226562 136.175781 69.324219 134.101562 C 68.351562 131.875 66.671875 130.386719 64.757812 128.96875 C 64.394531 128.703125 63.910156 129.222656 64.28125 129.492188 C 65.246094 130.203125 66.21875 130.917969 67.03125 131.804688 C 67.851562 132.703125 68.449219 133.75 68.886719 134.882812 C 69.523438 136.550781 69.921875 138.328125 70.820312 139.878906 C 67.5625 138.621094 64.148438 137.804688 60.90625 136.5 C 56.910156 134.886719 53.246094 132.570312 49.609375 130.289062 C 49.230469 130.042969 48.902344 130.671875 49.289062 130.914062 " fill-opacity="1" fill-rule="nonzero"/><path fill="#bfe4fd" d="M 97.792969 97.050781 L 271.480469 97.050781 C 273.453125 97.050781 275.054688 98.648438 275.054688 100.621094 L 275.054688 243.929688 C 275.054688 245.726562 273.597656 247.175781 271.804688 247.175781 L 97.472656 247.175781 C 95.675781 247.175781 94.222656 245.726562 94.222656 243.929688 L 94.222656 100.621094 C 94.222656 98.648438 95.824219 97.050781 97.792969 97.050781 " fill-opacity="1" fill-rule="nonzero"/><path fill="#2f627c" d="M 97.792969 97.050781 L 271.480469 97.050781 C 273.453125 97.050781 275.054688 98.648438 275.054688 100.621094 L 275.054688 108.808594 L 94.222656 108.808594 L 94.222656 100.621094 C 94.222656 98.648438 95.824219 97.050781 97.792969 97.050781 " fill-opacity="1" fill-rule="nonzero"/><path fill="#98d4fc" d="M 114.785156 102.945312 C 114.785156 104.347656 115.921875 105.484375 117.328125 105.484375 C 118.726562 105.484375 119.867188 104.347656 119.867188 102.945312 C 119.867188 101.542969 118.726562 100.40625 117.328125 100.40625 C 115.921875 100.40625 114.785156 101.542969 114.785156 102.945312 " fill-opacity="1" fill-rule="nonzero"/><path fill="#ffd471" d="M 106.410156 102.929688 C 106.410156 104.332031 107.550781 105.46875 108.953125 105.46875 C 110.355469 105.46875 111.496094 104.332031 111.496094 102.929688 C 111.496094 101.527344 110.355469 100.390625 108.953125 100.390625 C 107.550781 100.390625 106.410156 101.527344 106.410156 102.929688 " fill-opacity="1" fill-rule="nonzero"/><path fill="#a2ddd0" d="M 98.039062 102.914062 C 98.039062 104.316406 99.175781 105.453125 100.582031 105.453125 C 101.984375 105.453125 103.121094 104.316406 103.121094 102.914062 C 103.121094 101.511719 101.984375 100.375 100.582031 100.375 C 99.175781 100.375 98.039062 101.511719 98.039062 102.914062 " fill-opacity="1" fill-rule="nonzero"/><path fill="#f2faff" d="M 184.636719 166.726562 C 176.40625 166.726562 169.738281 160.0625 169.738281 151.835938 C 169.738281 143.609375 176.40625 136.949219 184.636719 136.949219 C 192.867188 136.949219 199.535156 143.609375 199.535156 151.835938 C 199.535156 160.0625 192.867188 166.726562 184.636719 166.726562 " fill-opacity="1" fill-rule="nonzero"/><path fill="#98d4fc" d="M 191.589844 159.941406 L 191.589844 158.734375 C 191.589844 153.023438 188.300781 150.046875 184.636719 150.046875 C 180.972656 150.046875 177.683594 153.261719 177.683594 158.734375 L 177.683594 159.941406 L 191.589844 159.941406 " fill-opacity="1" fill-rule="nonzero"/><path fill="#98d4fc" d="M 184.636719 141.992188 C 186.78125 141.992188 188.527344 143.632812 188.527344 145.660156 C 188.527344 147.679688 186.78125 149.316406 184.636719 149.316406 C 182.484375 149.316406 180.746094 147.679688 180.746094 145.660156 C 180.746094 143.632812 182.484375 141.992188 184.636719 141.992188 " fill-opacity="1" fill-rule="nonzero"/><path fill="#4693b9" d="M 133.109375 227.503906 C 127.496094 227.503906 122.929688 222.9375 122.929688 217.328125 C 122.929688 211.722656 127.496094 207.160156 133.109375 207.160156 L 236.167969 207.160156 C 241.78125 207.160156 246.347656 211.722656 246.347656 217.328125 C 246.347656 222.9375 241.78125 227.503906 236.167969 227.503906 L 133.109375 227.503906 " fill-opacity="1" fill-rule="nonzero"/><path fill="#d6eefe" d="M 236.167969 208.527344 L 133.109375 208.527344 C 128.246094 208.527344 124.300781 212.46875 124.300781 217.328125 C 124.300781 222.191406 128.246094 226.132812 133.109375 226.132812 L 236.167969 226.132812 C 241.03125 226.132812 244.972656 222.191406 244.972656 217.328125 C 244.972656 212.46875 241.03125 208.527344 236.167969 208.527344 " fill-opacity="1" fill-rule="nonzero"/><path fill="#ea3e46" d="M 154.050781 220.273438 C 153.976562 220.265625 153.914062 220.21875 153.878906 220.160156 L 152.914062 218.671875 L 151.988281 220.117188 C 151.949219 220.175781 151.886719 220.21875 151.816406 220.230469 L 151.769531 220.234375 L 151.613281 220.183594 L 150.820312 219.609375 C 150.703125 219.523438 150.679688 219.359375 150.761719 219.242188 L 151.824219 217.789062 L 150.257812 217.320312 C 150.191406 217.304688 150.136719 217.257812 150.101562 217.195312 C 150.070312 217.132812 150.0625 217.0625 150.082031 216.996094 L 150.375 216.035156 C 150.394531 215.96875 150.445312 215.914062 150.507812 215.878906 L 150.625 215.851562 L 150.714844 215.871094 L 152.273438 216.449219 L 152.226562 214.648438 C 152.222656 214.578125 152.25 214.511719 152.300781 214.460938 C 152.347656 214.410156 152.417969 214.382812 152.484375 214.382812 L 153.457031 214.382812 C 153.527344 214.382812 153.597656 214.410156 153.644531 214.460938 C 153.695312 214.511719 153.71875 214.578125 153.71875 214.648438 L 153.667969 216.480469 L 155.191406 215.914062 L 155.285156 215.898438 L 155.398438 215.921875 C 155.464844 215.957031 155.511719 216.015625 155.53125 216.082031 L 155.824219 217.046875 C 155.84375 217.113281 155.835938 217.1875 155.804688 217.246094 C 155.773438 217.304688 155.714844 217.351562 155.648438 217.371094 L 154.050781 217.84375 L 155.09375 219.269531 C 155.179688 219.382812 155.15625 219.546875 155.039062 219.628906 L 154.253906 220.226562 L 154.097656 220.28125 L 154.050781 220.273438 " fill-opacity="1" fill-rule="nonzero"/><path fill="#ea3e46" d="M 164.613281 220.273438 C 164.542969 220.261719 164.476562 220.21875 164.4375 220.160156 L 163.472656 218.671875 L 162.546875 220.117188 C 162.511719 220.175781 162.449219 220.21875 162.378906 220.230469 L 162.328125 220.234375 L 162.175781 220.183594 L 161.382812 219.609375 C 161.265625 219.523438 161.242188 219.359375 161.324219 219.242188 L 162.386719 217.789062 L 160.820312 217.320312 C 160.753906 217.304688 160.695312 217.257812 160.664062 217.195312 C 160.632812 217.132812 160.621094 217.0625 160.644531 216.996094 L 160.9375 216.035156 C 160.957031 215.96875 161.007812 215.914062 161.070312 215.878906 L 161.183594 215.851562 L 161.277344 215.871094 L 162.835938 216.449219 L 162.789062 214.648438 C 162.785156 214.578125 162.8125 214.511719 162.863281 214.460938 C 162.910156 214.410156 162.976562 214.382812 163.046875 214.382812 L 164.019531 214.382812 C 164.089844 214.382812 164.15625 214.410156 164.207031 214.460938 C 164.253906 214.511719 164.28125 214.578125 164.28125 214.648438 L 164.226562 216.480469 L 165.753906 215.914062 L 165.84375 215.898438 L 165.960938 215.921875 C 166.023438 215.957031 166.074219 216.015625 166.09375 216.082031 L 166.386719 217.046875 C 166.40625 217.113281 166.398438 217.1875 166.367188 217.246094 C 166.335938 217.304688 166.277344 217.351562 166.210938 217.371094 L 164.613281 217.84375 L 165.652344 219.269531 C 165.738281 219.382812 165.714844 219.546875 165.601562 219.628906 L 164.8125 220.226562 L 164.65625 220.28125 L 164.613281 220.273438 " fill-opacity="1" fill-rule="nonzero"/><path fill="#ea3e46" d="M 175.171875 220.273438 C 175.101562 220.261719 175.039062 220.21875 175 220.160156 L 174.035156 218.671875 L 173.109375 220.117188 C 173.070312 220.175781 173.011719 220.21875 172.941406 220.230469 L 172.890625 220.234375 L 172.738281 220.183594 L 171.941406 219.609375 C 171.828125 219.523438 171.800781 219.359375 171.886719 219.242188 L 172.949219 217.789062 L 171.382812 217.320312 C 171.3125 217.304688 171.257812 217.257812 171.226562 217.195312 C 171.191406 217.132812 171.183594 217.0625 171.207031 216.996094 L 171.496094 216.035156 C 171.519531 215.96875 171.566406 215.914062 171.632812 215.878906 L 171.746094 215.851562 L 171.835938 215.871094 L 173.394531 216.449219 L 173.347656 214.648438 C 173.347656 214.578125 173.375 214.511719 173.421875 214.460938 C 173.472656 214.410156 173.539062 214.382812 173.609375 214.382812 L 174.582031 214.382812 C 174.652344 214.382812 174.71875 214.410156 174.769531 214.460938 C 174.816406 214.511719 174.84375 214.578125 174.839844 214.648438 L 174.789062 216.480469 L 176.316406 215.914062 L 176.40625 215.898438 L 176.523438 215.921875 C 176.585938 215.957031 176.632812 216.015625 176.65625 216.082031 L 176.945312 217.046875 C 176.96875 217.113281 176.960938 217.1875 176.929688 217.246094 C 176.894531 217.304688 176.839844 217.351562 176.773438 217.371094 L 175.175781 217.84375 L 176.214844 219.269531 C 176.300781 219.382812 176.277344 219.542969 176.164062 219.628906 L 175.375 220.226562 L 175.214844 220.28125 L 175.171875 220.273438 " fill-opacity="1" fill-rule="nonzero"/><path fill="#ea3e46" d="M 185.730469 220.273438 C 185.660156 220.261719 185.597656 220.21875 185.558594 220.160156 L 184.597656 218.671875 L 183.671875 220.117188 C 183.628906 220.175781 183.570312 220.21875 183.5 220.230469 L 183.453125 220.234375 L 183.296875 220.183594 L 182.503906 219.609375 C 182.386719 219.523438 182.363281 219.359375 182.449219 219.242188 L 183.507812 217.789062 L 181.941406 217.320312 C 181.875 217.304688 181.820312 217.257812 181.785156 217.195312 C 181.753906 217.132812 181.746094 217.0625 181.765625 216.996094 L 182.058594 216.035156 C 182.082031 215.96875 182.125 215.914062 182.191406 215.878906 L 182.308594 215.851562 L 182.398438 215.871094 L 183.957031 216.449219 L 183.910156 214.648438 C 183.910156 214.578125 183.9375 214.507812 183.984375 214.460938 C 184.03125 214.410156 184.101562 214.382812 184.171875 214.382812 L 185.144531 214.382812 C 185.214844 214.382812 185.28125 214.410156 185.328125 214.460938 C 185.378906 214.511719 185.40625 214.578125 185.402344 214.648438 L 185.351562 216.480469 L 186.875 215.914062 L 186.964844 215.898438 L 187.082031 215.921875 C 187.148438 215.957031 187.195312 216.015625 187.21875 216.082031 L 187.507812 217.046875 C 187.527344 217.113281 187.523438 217.183594 187.488281 217.246094 C 187.453125 217.304688 187.402344 217.351562 187.332031 217.371094 L 185.738281 217.84375 L 186.777344 219.269531 C 186.859375 219.382812 186.835938 219.542969 186.726562 219.628906 L 185.9375 220.226562 L 185.777344 220.28125 L 185.730469 220.273438 " fill-opacity="1" fill-rule="nonzero"/><path fill="#ea3e46" d="M 196.292969 220.273438 C 196.226562 220.261719 196.160156 220.21875 196.121094 220.160156 L 195.160156 218.671875 L 194.234375 220.117188 C 194.195312 220.175781 194.132812 220.21875 194.058594 220.230469 L 194.015625 220.234375 L 193.859375 220.183594 L 193.066406 219.609375 C 192.949219 219.523438 192.921875 219.359375 193.007812 219.242188 L 194.066406 217.789062 L 192.5 217.320312 C 192.4375 217.304688 192.378906 217.257812 192.347656 217.195312 C 192.316406 217.132812 192.308594 217.0625 192.328125 216.996094 L 192.621094 216.035156 C 192.640625 215.96875 192.6875 215.914062 192.753906 215.878906 L 192.867188 215.851562 L 192.957031 215.871094 L 194.519531 216.449219 L 194.46875 214.648438 C 194.46875 214.578125 194.496094 214.511719 194.546875 214.460938 C 194.59375 214.410156 194.664062 214.382812 194.730469 214.382812 L 195.703125 214.382812 C 195.773438 214.382812 195.84375 214.410156 195.890625 214.460938 C 195.941406 214.511719 195.964844 214.578125 195.964844 214.648438 L 195.914062 216.480469 L 197.4375 215.914062 L 197.527344 215.898438 L 197.644531 215.921875 C 197.707031 215.957031 197.757812 216.015625 197.777344 216.082031 L 198.070312 217.046875 C 198.089844 217.113281 198.082031 217.1875 198.050781 217.246094 C 198.015625 217.304688 197.960938 217.351562 197.894531 217.371094 L 196.296875 217.84375 L 197.339844 219.269531 C 197.421875 219.382812 197.398438 219.542969 197.285156 219.628906 L 196.496094 220.226562 L 196.339844 220.28125 L 196.292969 220.273438 " fill-opacity="1" fill-rule="nonzero"/><path fill="#ea3e46" d="M 206.855469 220.273438 C 206.785156 220.261719 206.722656 220.21875 206.683594 220.160156 L 205.71875 218.671875 L 204.792969 220.117188 C 204.753906 220.175781 204.695312 220.21875 204.621094 220.230469 L 204.574219 220.234375 L 204.421875 220.183594 L 203.628906 219.609375 C 203.511719 219.523438 203.484375 219.359375 203.570312 219.242188 L 204.628906 217.789062 L 203.0625 217.320312 C 203 217.304688 202.941406 217.257812 202.910156 217.195312 C 202.878906 217.132812 202.867188 217.0625 202.886719 216.996094 L 203.183594 216.035156 C 203.203125 215.96875 203.25 215.914062 203.3125 215.878906 L 203.429688 215.851562 L 203.523438 215.871094 L 205.082031 216.449219 L 205.03125 214.648438 C 205.03125 214.578125 205.054688 214.511719 205.109375 214.460938 C 205.15625 214.410156 205.222656 214.382812 205.292969 214.382812 L 206.265625 214.382812 C 206.335938 214.382812 206.402344 214.410156 206.453125 214.460938 C 206.5 214.511719 206.527344 214.578125 206.523438 214.648438 L 206.472656 216.480469 L 208 215.914062 L 208.089844 215.898438 L 208.203125 215.921875 C 208.269531 215.957031 208.320312 216.015625 208.339844 216.082031 L 208.632812 217.046875 C 208.652344 217.113281 208.644531 217.183594 208.609375 217.246094 C 208.578125 217.304688 208.523438 217.351562 208.457031 217.371094 L 206.859375 217.84375 L 207.898438 219.269531 C 207.984375 219.382812 207.960938 219.546875 207.847656 219.628906 L 207.058594 220.226562 L 206.902344 220.28125 L 206.855469 220.273438 " fill-opacity="1" fill-rule="nonzero"/><path fill="#ea3e46" d="M 217.417969 220.273438 C 217.347656 220.265625 217.285156 220.21875 217.242188 220.160156 L 216.28125 218.671875 L 215.355469 220.117188 C 215.316406 220.175781 215.253906 220.21875 215.183594 220.230469 L 215.136719 220.234375 L 214.984375 220.183594 L 214.1875 219.609375 C 214.070312 219.523438 214.046875 219.359375 214.128906 219.242188 L 215.191406 217.789062 L 213.625 217.320312 C 213.558594 217.304688 213.503906 217.257812 213.472656 217.195312 C 213.4375 217.132812 213.429688 217.0625 213.449219 216.996094 L 213.742188 216.035156 C 213.761719 215.96875 213.8125 215.914062 213.875 215.878906 L 213.992188 215.851562 L 214.082031 215.871094 L 215.640625 216.449219 L 215.59375 214.648438 C 215.589844 214.578125 215.617188 214.511719 215.667969 214.460938 C 215.714844 214.410156 215.78125 214.382812 215.851562 214.382812 L 216.828125 214.382812 C 216.898438 214.382812 216.964844 214.410156 217.015625 214.460938 C 217.0625 214.511719 217.089844 214.578125 217.085938 214.648438 L 217.035156 216.480469 L 218.5625 215.914062 L 218.648438 215.898438 L 218.765625 215.921875 C 218.832031 215.957031 218.878906 216.015625 218.902344 216.082031 L 219.191406 217.046875 C 219.210938 217.113281 219.207031 217.1875 219.171875 217.246094 C 219.140625 217.304688 219.082031 217.351562 219.019531 217.371094 L 217.417969 217.84375 L 218.460938 219.269531 C 218.546875 219.382812 218.519531 219.546875 218.40625 219.628906 L 217.617188 220.226562 L 217.460938 220.28125 L 217.417969 220.273438 " fill-opacity="1" fill-rule="nonzero"/><path fill="#4693b9" d="M 133.109375 200.628906 C 127.496094 200.628906 122.929688 196.070312 122.929688 190.457031 C 122.929688 184.847656 127.496094 180.289062 133.109375 180.289062 L 236.167969 180.289062 C 241.78125 180.289062 246.347656 184.847656 246.347656 190.457031 C 246.347656 196.070312 241.78125 200.628906 236.167969 200.628906 L 133.109375 200.628906 " fill-opacity="1" fill-rule="nonzero"/><path fill="#d6eefe" d="M 236.167969 181.65625 L 133.109375 181.65625 C 128.246094 181.65625 124.300781 185.597656 124.300781 190.457031 C 124.300781 195.320312 128.246094 199.261719 133.109375 199.261719 L 236.167969 199.261719 C 241.03125 199.261719 244.972656 195.320312 244.972656 190.457031 C 244.972656 185.597656 241.03125 181.65625 236.167969 181.65625 " fill-opacity="1" fill-rule="nonzero"/><path fill="#98d4fc" d="M 229.925781 191.328125 C 229.925781 192.113281 229.285156 192.753906 228.5 192.753906 L 175.511719 192.753906 C 174.726562 192.753906 174.085938 192.113281 174.085938 191.328125 L 174.085938 189.898438 C 174.085938 189.117188 174.726562 188.476562 175.511719 188.476562 L 228.5 188.476562 C 229.285156 188.476562 229.925781 189.117188 229.925781 189.898438 L 229.925781 191.328125 " fill-opacity="1" fill-rule="nonzero"/><path fill="#98d4fc" d="M 170.398438 189.898438 C 170.398438 189.117188 169.753906 188.476562 168.96875 188.476562 L 140.78125 188.476562 C 139.992188 188.476562 139.351562 189.117188 139.351562 189.898438 L 139.351562 191.328125 C 139.351562 192.113281 139.992188 192.753906 140.78125 192.753906 L 168.96875 192.753906 C 169.753906 192.753906 170.398438 192.113281 170.398438 191.328125 L 170.398438 189.898438 " fill-opacity="1" fill-rule="nonzero"/><path fill="#ea3e46" d="M 162.667969 121.773438 C 161.460938 121.773438 160.34375 121.121094 159.753906 120.066406 C 159.164062 119.015625 159.1875 117.722656 159.816406 116.691406 L 181.785156 80.648438 C 182.390625 79.644531 183.457031 79.039062 184.636719 79.039062 C 185.816406 79.039062 186.882812 79.644531 187.492188 80.648438 L 209.460938 116.691406 C 210.089844 117.722656 210.113281 119.015625 209.523438 120.066406 C 208.929688 121.121094 207.8125 121.773438 206.605469 121.773438 L 162.667969 121.773438 " fill-opacity="1" fill-rule="nonzero"/><path fill="#fbd8da" d="M 184.636719 110.238281 C 185.480469 110.238281 186.167969 109.558594 186.167969 108.710938 L 186.167969 91.503906 C 186.167969 90.65625 185.480469 89.976562 184.636719 89.976562 C 183.796875 89.976562 183.109375 90.65625 183.109375 91.503906 L 183.109375 108.710938 C 183.109375 109.558594 183.796875 110.238281 184.636719 110.238281 " fill-opacity="1" fill-rule="nonzero"/><path fill="#fbd8da" d="M 182.953125 115.039062 C 182.953125 115.976562 183.710938 116.726562 184.636719 116.726562 C 185.570312 116.726562 186.324219 115.976562 186.324219 115.039062 C 186.324219 114.109375 185.570312 113.355469 184.636719 113.355469 C 183.710938 113.355469 182.953125 114.109375 182.953125 115.039062 " fill-opacity="1" fill-rule="nonzero"/><path fill="#ffa18a" d="M 105.246094 233.496094 C 105.246094 233.496094 105.75 233.089844 105.953125 232.921875 C 106.398438 232.558594 106.84375 232.179688 107.324219 231.851562 C 107.816406 231.527344 108.351562 231.257812 108.941406 231.148438 C 109.488281 231.046875 110.019531 231.050781 110.539062 230.832031 C 111.28125 230.523438 111.855469 229.957031 112.222656 229.253906 C 112.320312 229.472656 112.488281 229.640625 112.765625 229.554688 C 112.96875 229.480469 113.066406 229.332031 113.113281 229.144531 C 113.242188 229.292969 113.449219 229.320312 113.703125 229.101562 C 114.199219 228.675781 114.296875 227.828125 114.1875 227.226562 C 113.910156 225.679688 112.304688 224.96875 110.878906 225.332031 C 111.191406 224.730469 111.640625 224.230469 112.019531 223.675781 C 112.226562 223.375 112.691406 222.726562 112.503906 222.316406 C 112.078125 221.375 110.441406 223.539062 110.222656 223.890625 C 109.8125 224.550781 109.4375 225.144531 108.964844 225.761719 C 108.394531 226.5 108.050781 227.109375 107.335938 227.675781 C 105.871094 228.824219 104.261719 229.878906 102.636719 230.796875 C 102.609375 230.808594 103.9375 233.136719 105.246094 233.496094 " fill-opacity="1" fill-rule="nonzero"/><path fill="#ffa18a" d="M 88.542969 331.628906 C 88.679688 334.308594 89.230469 336.84375 89.113281 339.5625 C 88.878906 344.789062 87.363281 349.800781 85.863281 354.703125 L 81.417969 354.703125 C 81.476562 351.878906 81.582031 349.050781 81.570312 346.230469 C 81.554688 343.496094 81.140625 340.777344 81.292969 338.046875 C 81.367188 336.71875 81.511719 335.390625 81.453125 334.058594 C 81.394531 332.667969 81.179688 331.28125 80.980469 329.910156 C 80.679688 327.75 80.445312 325.601562 80.839844 323.460938 L 89.65625 323.460938 L 89.621094 323.523438 C 89.011719 326.167969 88.394531 328.867188 88.542969 331.628906 " fill-opacity="1" fill-rule="nonzero"/><path fill="#ffa18a" d="M 68.398438 331.628906 C 68.261719 334.308594 67.707031 336.84375 67.832031 339.5625 C 68.0625 344.789062 69.578125 349.800781 71.078125 354.703125 L 75.523438 354.703125 C 75.464844 351.878906 75.359375 349.050781 75.371094 346.230469 C 75.386719 343.496094 75.796875 340.777344 75.648438 338.046875 C 75.570312 336.71875 75.433594 335.390625 75.488281 334.058594 C 75.546875 332.667969 75.761719 331.28125 75.964844 329.910156 C 76.269531 327.75 76.496094 325.601562 76.101562 323.460938 L 67.285156 323.460938 L 67.320312 323.523438 C 67.933594 326.167969 68.546875 328.867188 68.398438 331.628906 " fill-opacity="1" fill-rule="nonzero"/><path fill="#ffa18a" d="M 72.59375 236.125 C 72.21875 235.703125 71.851562 235.34375 71.554688 234.867188 C 70.792969 233.679688 70.019531 232.503906 68.921875 231.589844 L 59.367188 234.847656 L 59.277344 235.011719 C 58.703125 236.335938 58.597656 237.863281 58.632812 239.28125 C 58.691406 240.988281 59.039062 242.71875 59.707031 244.289062 C 59.890625 244.722656 60.667969 246.300781 61.414062 246.585938 C 61.570312 247.117188 61.722656 247.640625 61.875 248.167969 C 62.042969 248.761719 62.152344 249.460938 62.402344 250.027344 L 72.078125 246.726562 C 71.878906 246.046875 71.652344 245.371094 71.394531 244.707031 C 71.976562 243.933594 72.492188 243.085938 72.585938 242.113281 C 72.640625 241.496094 72.480469 240.914062 72.324219 240.324219 C 72.066406 239.308594 72.011719 238.515625 72.628906 237.625 C 72.859375 237.300781 73.070312 237.035156 72.921875 236.613281 C 72.855469 236.425781 72.726562 236.277344 72.59375 236.125 " fill-opacity="1" fill-rule="nonzero"/><path fill="#ffd471" d="M 38.898438 275.585938 C 39.496094 273.359375 41.078125 271.429688 42.371094 269.566406 C 43.65625 267.695312 44.980469 265.847656 46.40625 264.082031 C 49.320312 260.457031 52.625 257.4375 56.59375 255.007812 C 57.8125 254.253906 59.046875 253.460938 59.902344 252.28125 C 60.578125 251.355469 61.011719 250.308594 61.875 249.519531 C 63.058594 248.449219 64.566406 247.894531 66.113281 247.503906 C 67.871094 246.667969 71.792969 245.972656 71.882812 245.96875 C 75.019531 245.78125 75.957031 245.917969 78.894531 244.738281 C 81.886719 243.539062 86.472656 240.882812 88.882812 238.824219 C 93.609375 234.796875 99.167969 232.050781 104.71875 229.363281 C 105.1875 230.789062 107.414062 232.953125 107.414062 232.953125 C 102.59375 236.746094 99.242188 242.046875 94.328125 245.730469 C 91.648438 247.722656 89.175781 249.519531 87.316406 252.367188 C 86.65625 253.378906 86.097656 254.445312 85.578125 255.53125 C 84.601562 259.414062 84.21875 263.4375 84.484375 267.453125 C 84.8125 272.472656 86.207031 277.167969 88.234375 281.757812 C 90.179688 286.152344 91.664062 290.507812 92.46875 295.265625 C 93.296875 300.144531 93.816406 305.09375 94.199219 310.03125 C 94.527344 314.222656 94.710938 318.421875 94.769531 322.621094 C 84.1875 325.414062 73.269531 325.785156 62.429688 324.832031 C 62.042969 317.277344 62.300781 309.703125 63.269531 302.199219 C 63.804688 298 64.730469 293.882812 65.34375 289.6875 C 66 285.207031 65.699219 280.648438 64.46875 276.289062 C 63.25 271.96875 61.496094 267.828125 59.289062 263.925781 C 57.257812 266.523438 55.160156 269.085938 52.941406 271.539062 C 51.777344 272.832031 50.542969 274.078125 49.179688 275.15625 C 54.144531 277.050781 59.28125 278.40625 64.535156 279.199219 C 64.535156 279.199219 63.324219 280.507812 62.738281 284.601562 C 62.738281 284.601562 57.011719 283.582031 54.121094 283.25 C 51.539062 282.953125 48.9375 282.867188 46.367188 282.507812 C 42.746094 282.011719 37.652344 280.230469 38.898438 275.585938 " fill-opacity="1" fill-rule="nonzero"/><path fill="#12252e" d="M 56.421875 240.292969 C 56.628906 241.738281 56.925781 243.246094 57.46875 244.609375 C 58.191406 246.414062 59.683594 247.371094 61.429688 247.835938 C 61.324219 248.144531 61.230469 248.464844 61.15625 248.789062 C 60.960938 249.660156 60.785156 250.5625 60.792969 251.457031 C 60.8125 252.71875 61.339844 254.132812 62.597656 254.648438 C 63.835938 255.136719 65.246094 254.515625 66.105469 253.605469 C 67.601562 252.019531 67.640625 249.671875 66.476562 248.019531 C 67.40625 247.640625 68.1875 246.875 68.765625 246.070312 C 69.429688 245.136719 69.859375 244.035156 70.003906 242.902344 C 70.167969 241.644531 69.796875 240.429688 69.835938 239.167969 C 69.875 237.800781 70.570312 236.585938 70.949219 235.308594 C 71.1875 234.492188 71.265625 233.65625 71.222656 232.828125 C 71.398438 232.160156 71.457031 228.308594 67.058594 227.09375 C 62.261719 225.765625 59.011719 228.046875 57.398438 230.054688 C 56.171875 231.59375 55.3125 232.988281 55.3125 235.867188 C 55.3125 237.886719 56.238281 239.007812 56.421875 240.292969 " fill-opacity="1" fill-rule="nonzero"/><path fill="#ffa18a" d="M 62.832031 284.023438 C 63.242188 284.089844 63.648438 284.265625 63.960938 284.546875 C 64.21875 284.785156 64.433594 285.09375 64.753906 285.25 C 65.265625 285.507812 65.753906 285.089844 65.921875 284.617188 C 66.042969 284.265625 66.035156 283.890625 66.074219 283.53125 C 66.121094 283.105469 66.273438 282.703125 66.296875 282.28125 C 66.34375 281.503906 66.210938 280.386719 65.257812 279.839844 L 65.300781 280.113281 C 65.160156 280.28125 64.953125 280.195312 64.753906 280.160156 C 64.449219 280.105469 64.382812 280.039062 64.105469 279.894531 L 64.089844 279.882812 C 63.722656 280.425781 63.414062 281.09375 63.214844 281.710938 C 63.007812 282.34375 62.832031 284.023438 62.832031 284.023438 " fill-opacity="1" fill-rule="nonzero"/><path fill="#98d4fc" d="M 68.902344 347.507812 C 68.835938 347.046875 68.757812 346.570312 68.675781 346.109375 C 68.640625 345.925781 68.625 345.84375 68.625 345.84375 C 70.691406 346.246094 73.449219 346.089844 75.414062 345.945312 C 75.414062 345.957031 75.457031 346.628906 75.488281 347.507812 L 68.902344 347.507812 " fill-opacity="1" fill-rule="nonzero"/><path fill="#12252e" d="M 75.632812 357.023438 C 75.578125 355.449219 75.777344 353.847656 75.847656 352.273438 C 75.921875 350.617188 75.730469 347.3125 75.726562 347.304688 C 73.722656 347.445312 70.910156 347.605469 68.804688 347.199219 C 68.804688 347.199219 68.824219 347.285156 68.859375 347.46875 C 69.136719 348.972656 69.355469 350.507812 69.503906 352.042969 C 69.570312 352.710938 69.621094 353.390625 69.660156 354.0625 C 69.707031 354.851562 69.832031 355.761719 69.675781 356.535156 C 69.476562 357.613281 68.652344 358.496094 68.730469 359.664062 C 68.789062 360.582031 69.449219 361.171875 70.070312 361.679688 C 70.824219 362.289062 71.398438 363.289062 72.277344 363.695312 C 73.09375 364.070312 74.039062 363.914062 74.824219 363.496094 C 75.761719 363.003906 75.878906 361.988281 75.992188 360.902344 C 76.140625 359.558594 75.679688 358.359375 75.632812 357.023438 " fill-opacity="1" fill-rule="nonzero"/><path fill="#98d4fc" d="M 88.011719 347.679688 C 88.078125 347.207031 88.152344 346.734375 88.234375 346.273438 C 88.269531 346.09375 88.28125 346.011719 88.28125 346.011719 C 86.21875 346.414062 83.464844 346.261719 81.5 346.117188 C 81.496094 346.128906 81.457031 346.796875 81.421875 347.679688 L 88.011719 347.679688 " fill-opacity="1" fill-rule="nonzero"/><path fill="#12252e" d="M 80.949219 360.902344 C 81.0625 361.988281 81.179688 363.003906 82.113281 363.496094 C 82.902344 363.914062 83.847656 364.070312 84.664062 363.695312 C 85.539062 363.289062 86.113281 362.289062 86.871094 361.679688 C 87.492188 361.171875 88.152344 360.582031 88.214844 359.664062 C 88.289062 358.496094 87.46875 357.613281 87.261719 356.535156 C 87.113281 355.761719 87.234375 354.851562 87.28125 354.0625 C 87.320312 353.390625 87.371094 352.710938 87.433594 352.042969 C 87.582031 350.507812 87.804688 348.972656 88.082031 347.46875 C 88.117188 347.285156 88.136719 347.199219 88.136719 347.199219 C 86.023438 347.605469 83.214844 347.445312 81.214844 347.304688 C 81.207031 347.3125 81.019531 350.617188 81.097656 352.273438 C 81.167969 353.847656 81.363281 355.449219 81.308594 357.023438 C 81.261719 358.359375 80.804688 359.558594 80.949219 360.902344 " fill-opacity="1" fill-rule="nonzero"/><path fill="#ee9681" d="M 196.804688 313.382812 C 197.25 313.617188 197.691406 313.878906 198.125 314.144531 C 198.53125 314.394531 199.253906 315.042969 199.773438 314.640625 C 200.242188 314.273438 199.828125 313.691406 199.550781 313.359375 C 198.976562 312.667969 198.339844 311.875 197.550781 311.429688 C 196.714844 310.960938 195.734375 310.953125 194.828125 310.695312 C 193.703125 310.375 192.808594 309.621094 192.304688 308.5625 C 190.835938 309.53125 189.019531 310.78125 187.925781 311.566406 C 188.300781 312.363281 188.949219 313.019531 189.210938 313.867188 C 189.464844 314.699219 189.464844 315.582031 189.726562 316.40625 C 190.191406 317.863281 191.121094 319.121094 192.183594 320.199219 C 192.53125 320.542969 193 321.058594 193.558594 320.90625 C 193.710938 320.859375 193.847656 320.632812 193.960938 320.605469 C 194.128906 320.566406 194.398438 320.78125 194.597656 320.847656 C 194.980469 320.964844 195.511719 321.023438 195.835938 320.722656 C 196.160156 320.425781 196.054688 320.050781 195.855469 319.722656 C 196.398438 320.074219 197.226562 320.5 197.757812 320.28125 C 198.214844 320.097656 198.082031 319.644531 197.890625 319.300781 C 198.402344 319.566406 199.007812 319.808594 199.542969 319.503906 C 200.003906 319.246094 199.902344 318.804688 199.675781 318.414062 C 199.324219 317.792969 198.679688 317.429688 198.171875 316.964844 C 197.394531 316.253906 197.050781 315.207031 196.746094 314.230469 C 196.664062 313.984375 196.578125 313.730469 196.527344 313.476562 C 196.460938 313.144531 196.507812 313.210938 196.804688 313.382812 " fill-opacity="1" fill-rule="nonzero"/><path fill="#4087aa" d="M 185.179688 295.171875 C 183.535156 292.492188 183.429688 289.765625 183.214844 286.757812 L 172.621094 286.757812 C 172.621094 286.757812 172.828125 291.390625 172.933594 291.324219 C 173.273438 294.167969 174.023438 296.921875 175.738281 299.292969 C 177.34375 301.507812 179.328125 303.5 181.140625 305.550781 C 183.246094 307.945312 185.292969 310.414062 187.59375 312.621094 C 189.023438 310.8125 190.894531 309.707031 193.175781 309.328125 C 192.167969 306.820312 191.011719 304.378906 189.664062 302.035156 C 188.300781 299.65625 186.617188 297.507812 185.179688 295.171875 " fill-opacity="1" fill-rule="nonzero"/><path fill="#29566d" d="M 148.210938 324.917969 C 148.75 326.046875 149.3125 327.191406 149.582031 328.421875 C 149.921875 329.964844 149.675781 331.515625 149.3125 333.035156 C 148.183594 337.757812 147.871094 342.445312 148.332031 347.335938 L 157.890625 347.335938 C 157.894531 344.730469 159.859375 335.855469 160.566406 334.089844 C 161.226562 332.433594 162.019531 330.820312 162.496094 329.097656 C 163.5 325.496094 162.582031 321.628906 161.953125 318.039062 C 161.269531 314.09375 160.46875 310.175781 159.855469 306.214844 C 159.214844 302.117188 158.828125 297.976562 158.9375 293.828125 L 141.113281 293.828125 C 138.785156 301.996094 141.566406 310.648438 145.007812 318.179688 C 146.039062 320.441406 147.144531 322.667969 148.210938 324.917969 " fill-opacity="1" fill-rule="nonzero"/><path fill="#091317" d="M 169.03125 364.351562 C 168.808594 363.160156 167.972656 362.359375 167.03125 361.730469 C 165.222656 360.507812 159.582031 358.910156 158.980469 358.367188 C 157.824219 357.335938 157.609375 355.648438 157.660156 354.167969 C 157.769531 351.027344 158.175781 347.875 158.441406 344.742188 C 158.441406 344.742188 154.464844 345.714844 147.671875 344.613281 C 147.671875 344.613281 148.132812 350.234375 148.363281 353.042969 C 148.472656 354.414062 148.59375 355.789062 148.488281 357.164062 C 148.398438 358.378906 148.136719 359.554688 147.894531 360.742188 C 147.648438 361.917969 147.414062 363.109375 147.378906 364.316406 C 147.367188 364.53125 147.375 364.972656 147.375 364.972656 C 148.121094 365.730469 149.898438 365.671875 150.738281 365.632812 C 152.851562 365.539062 154.882812 365.21875 157.015625 365.355469 C 159.753906 365.535156 162.46875 365.980469 165.214844 366.085938 C 166.160156 366.117188 167.058594 366.109375 167.910156 365.976562 C 169 365.691406 169.09375 364.679688 169.03125 364.351562 " fill-opacity="1" fill-rule="nonzero"/><path fill="#2f627c" d="M 141.09375 325.308594 C 141.628906 326.433594 142.191406 327.574219 142.460938 328.804688 C 142.800781 330.351562 142.554688 331.902344 142.1875 333.417969 C 141.0625 338.144531 140.753906 342.832031 141.210938 347.722656 L 150.773438 347.722656 C 150.777344 345.121094 152.738281 336.238281 153.449219 334.476562 C 154.109375 332.820312 154.902344 331.210938 155.382812 329.488281 C 156.382812 325.886719 155.460938 322.019531 154.835938 318.425781 C 154.152344 314.476562 153.347656 310.558594 152.734375 306.605469 C 152.101562 302.503906 151.707031 298.371094 151.820312 294.214844 L 133.996094 294.214844 C 131.664062 302.386719 134.445312 311.042969 137.886719 318.566406 C 138.917969 320.828125 140.023438 323.058594 141.09375 325.308594 " fill-opacity="1" fill-rule="nonzero"/><path fill="#ffa18a" d="M 186.625 266.339844 C 187.460938 265.578125 187.988281 265.023438 187.988281 265.023438 C 187.988281 265.023438 189.28125 266.324219 190.871094 265.578125 C 190.890625 265.574219 200.785156 259.441406 202.96875 261.808594 C 205.558594 264.617188 204.242188 268.265625 201.714844 271.078125 C 200.644531 272.265625 200.695312 273.246094 200.621094 274.324219 C 200.59375 274.742188 199.964844 274.933594 199.71875 274.539062 L 199.359375 274.113281 C 199.28125 274.015625 199.136719 274 199.035156 274.082031 C 198.1875 274.730469 197.332031 275.261719 196.476562 275.621094 C 194.472656 276.457031 192.867188 277.980469 190.738281 275.023438 C 190.488281 274.675781 190.269531 274.324219 190.0625 273.964844 L 184.9375 279.101562 C 182.742188 279.066406 182.421875 273.460938 181.976562 272.1875 C 181.902344 271.972656 181.164062 268.992188 181.367188 268.902344 C 183.320312 268.035156 185.328125 267.53125 186.625 266.339844 " fill-opacity="1" fill-rule="nonzero"/><path fill="#a55852" d="M 187.402344 262.824219 C 188.738281 260.769531 191.515625 251.632812 200.226562 253.238281 C 205.414062 254.195312 212.65625 262.316406 207.742188 267.191406 C 205.039062 269.867188 201.90625 264.609375 195.730469 267.671875 C 195.773438 267.640625 195.46875 266.5 195.164062 266.453125 C 196.441406 265.578125 193.183594 267.453125 190.804688 267.53125 C 189.578125 267.574219 187.089844 267.523438 186.160156 265.449219 C 185.324219 263.582031 186.894531 263.597656 187.402344 262.824219 " fill-opacity="1" fill-rule="nonzero"/><path fill="#ffa18a" d="M 193.605469 265.664062 C 193.054688 266.371094 192.914062 267.175781 193.609375 267.730469 C 194.230469 268.21875 195.144531 268.210938 195.773438 267.574219 C 196.398438 266.929688 196.429688 265.976562 195.878906 265.414062 C 194.867188 264.394531 194.132812 264.980469 193.605469 265.664062 " fill-opacity="1" fill-rule="nonzero"/><path fill="#12252e" d="M 161.914062 364.746094 C 161.691406 363.550781 160.851562 362.746094 159.914062 362.117188 C 158.105469 360.902344 152.464844 359.285156 151.863281 358.753906 C 150.707031 357.730469 150.492188 356.039062 150.542969 354.554688 C 150.65625 351.410156 151.058594 348.257812 151.324219 345.132812 C 151.324219 345.132812 147.351562 346.105469 140.550781 345 C 140.550781 345 141.011719 350.617188 141.242188 353.425781 C 141.351562 354.796875 141.472656 356.175781 141.367188 357.554688 C 141.277344 358.761719 141.019531 359.941406 140.773438 361.125 C 140.53125 362.304688 140.296875 363.496094 140.257812 364.703125 C 140.25 364.914062 140.257812 365.355469 140.257812 365.355469 C 141.007812 366.117188 142.78125 366.054688 143.621094 366.023438 C 145.734375 365.925781 147.765625 365.605469 149.898438 365.746094 C 152.636719 365.925781 155.351562 366.367188 158.101562 366.476562 C 159.039062 366.507812 159.941406 366.5 160.789062 366.363281 C 161.882812 366.082031 161.976562 365.066406 161.914062 364.746094 " fill-opacity="1" fill-rule="nonzero"/><path fill="#af6f5f" d="M 278.726562 283.390625 C 279.375 283.03125 280.039062 282.695312 280.703125 282.359375 L 278.683594 278.824219 C 278.15625 278.890625 277.617188 278.859375 277.070312 278.675781 C 275.808594 278.246094 274.34375 277.675781 272.949219 277.894531 C 272.601562 277.949219 272.285156 278.167969 272.386719 278.539062 C 272.507812 278.976562 272.996094 279.0625 273.359375 279.210938 C 273.734375 279.363281 273.988281 279.628906 273.90625 280.085938 C 273.851562 280.390625 273.457031 280.652344 273.210938 280.800781 C 272.835938 281.023438 272.4375 281.207031 272.042969 281.375 C 271.222656 281.726562 270.371094 281.882812 269.53125 282.164062 C 269.179688 282.277344 268.746094 282.597656 268.9375 283.003906 C 269.136719 283.433594 269.722656 283.320312 270.167969 283.273438 C 269.734375 283.480469 269.136719 283.742188 269.277344 284.246094 C 269.382812 284.65625 269.804688 284.675781 270.222656 284.628906 C 269.835938 284.804688 269.527344 285.09375 269.824219 285.503906 C 270.019531 285.773438 270.417969 285.765625 270.835938 285.675781 C 270.679688 285.75 270.527344 285.820312 270.378906 285.902344 L 270.339844 285.96875 C 270.4375 286.492188 270.929688 286.566406 271.410156 286.515625 C 272.351562 286.417969 273.304688 286.214844 274.238281 286.03125 C 275.03125 285.871094 275.863281 285.679688 276.550781 285.214844 C 276.878906 284.992188 277.144531 284.703125 277.414062 284.410156 C 277.808594 283.992188 278.21875 283.671875 278.726562 283.390625 " fill-opacity="1" fill-rule="nonzero"/><path fill="#25716d" d="M 290.84375 269.0625 L 290.84375 277.109375 C 290.6875 277.617188 290.445312 277.777344 289.980469 277.957031 C 289.691406 278.070312 289.394531 278.175781 289.101562 278.289062 C 288.589844 278.484375 288.078125 278.675781 287.5625 278.871094 C 285.433594 279.664062 283.308594 280.457031 281.175781 281.226562 C 281.027344 281.28125 280.605469 281.476562 280.222656 281.613281 L 278.21875 278.460938 C 282.75 274.558594 288 272.335938 290.84375 269.0625 " fill-opacity="1" fill-rule="nonzero"/><path fill="#bf7968" d="M 274.972656 347.234375 L 268.558594 343.410156 C 269.039062 342.703125 269.511719 341.984375 269.949219 341.242188 C 271.449219 338.703125 272.679688 335.996094 273.851562 333.296875 C 274.984375 330.683594 275.90625 328.027344 276.402344 325.226562 C 276.667969 323.738281 276.882812 322.226562 277.371094 320.789062 C 277.753906 319.675781 278.296875 318.640625 278.976562 317.691406 L 289.382812 320.816406 C 288.195312 322.542969 285.738281 326.59375 285.296875 328.675781 C 285.050781 329.800781 284.851562 330.929688 284.507812 332.027344 C 284.175781 333.097656 283.757812 334.136719 283.277344 335.15625 C 281.273438 339.40625 278.257812 343.105469 275.351562 346.769531 C 275.226562 346.925781 275.09375 347.078125 274.972656 347.234375 " fill-opacity="1" fill-rule="nonzero"/><path fill="#ffd471" d="M 268.46875 343.355469 C 268.777344 342.683594 269.085938 342.003906 269.398438 341.339844 C 269.398438 341.339844 271.21875 342.710938 276.691406 345.582031 C 276.691406 345.582031 276.078125 346.421875 275.328125 347.449219 L 268.46875 343.355469 " fill-opacity="1" fill-rule="nonzero"/><path fill="#12252e" d="M 253.25 351.695312 C 253.894531 350.964844 254.796875 350.761719 255.703125 350.714844 C 257.441406 350.621094 261.980469 351.824219 262.613281 351.703125 C 263.832031 351.46875 264.671875 350.402344 265.246094 349.363281 C 266.457031 347.15625 267.476562 344.824219 268.578125 342.566406 C 268.578125 342.566406 270.910156 344.863281 276.03125 346.898438 C 276.03125 346.898438 273.410156 350.5625 272.097656 352.402344 C 271.457031 353.296875 270.808594 354.191406 270.316406 355.183594 C 269.882812 356.050781 269.574219 356.96875 269.257812 357.882812 C 268.941406 358.789062 268.613281 359.703125 268.144531 360.542969 C 268.0625 360.703125 267.878906 361 267.878906 361 C 267.046875 361.21875 265.855469 360.441406 265.296875 360.074219 C 263.882812 359.144531 262.613281 358.089844 261.097656 357.3125 C 259.136719 356.308594 257.089844 355.5 255.160156 354.449219 C 254.496094 354.089844 253.886719 353.714844 253.355469 353.273438 C 252.726562 352.625 253.074219 351.894531 253.25 351.695312 " fill-opacity="1" fill-rule="nonzero"/><path fill="#bf7968" d="M 305.660156 350.160156 L 298.195312 350.160156 C 298.242188 349.308594 298.277344 348.449219 298.277344 347.589844 C 298.261719 344.644531 297.929688 341.683594 297.550781 338.761719 C 297.183594 335.941406 296.605469 333.183594 295.601562 330.53125 C 295.0625 329.117188 294.476562 327.707031 294.15625 326.222656 C 293.914062 325.070312 293.851562 323.90625 293.945312 322.746094 L 304.566406 322.746094 C 304.441406 324.835938 304.316406 326.921875 305 328.9375 C 305.375 330.027344 305.777344 331.09375 306.046875 332.21875 C 306.308594 333.304688 306.484375 334.410156 306.59375 335.527344 C 307.054688 340.210938 306.363281 344.929688 305.746094 349.566406 C 305.722656 349.761719 305.6875 349.960938 305.660156 350.160156 " fill-opacity="1" fill-rule="nonzero"/><path fill="#ffd471" d="M 298.085938 350.160156 C 298.007812 349.425781 297.925781 348.691406 297.855469 347.949219 C 297.855469 347.949219 300.125 348.195312 306.289062 347.863281 C 306.289062 347.863281 306.195312 348.894531 306.078125 350.160156 L 298.085938 350.160156 " fill-opacity="1" fill-rule="nonzero"/><path fill="#12252e" d="M 289.300781 365.125 C 289.480469 364.171875 290.152344 363.527344 290.902344 363.019531 C 292.347656 362.046875 296.863281 360.761719 297.34375 360.328125 C 298.269531 359.5 298.441406 358.152344 298.402344 356.96875 C 298.3125 354.453125 297.992188 351.9375 297.773438 349.433594 C 297.773438 349.433594 300.960938 350.203125 306.398438 349.324219 C 306.398438 349.324219 306.027344 353.820312 305.84375 356.066406 C 305.753906 357.164062 305.65625 358.265625 305.742188 359.367188 C 305.816406 360.335938 306.023438 361.277344 306.21875 362.230469 C 306.414062 363.171875 306.597656 364.121094 306.632812 365.085938 C 306.636719 365.257812 306.632812 365.613281 306.632812 365.613281 C 306.035156 366.222656 304.613281 366.171875 303.941406 366.140625 C 302.25 366.070312 300.625 365.8125 298.921875 365.925781 C 296.726562 366.0625 294.554688 366.421875 292.355469 366.503906 C 291.601562 366.535156 290.882812 366.527344 290.203125 366.421875 C 289.328125 366.191406 289.253906 365.378906 289.300781 365.125 " fill-opacity="1" fill-rule="nonzero"/><path fill="#bf7968" d="M 308.066406 241.695312 C 308.125 240.679688 308.734375 240.570312 308.734375 240.570312 C 308.734375 240.570312 307.085938 240.410156 306.695312 238.867188 C 306.6875 238.847656 304.488281 228.570312 301.574219 228.535156 C 298.902344 228.503906 296.632812 228.996094 296.640625 233.703125 C 296.640625 235.867188 295.867188 235.84375 294.988281 237.035156 C 294.757812 237.339844 294.933594 237.84375 295.351562 237.792969 L 295.855469 237.796875 C 295.96875 237.800781 296.058594 237.894531 296.0625 238.007812 C 296.089844 238.972656 296.207031 239.875 296.445312 240.683594 C 297.003906 242.566406 296.851562 244.558594 300.148438 244.359375 C 300.535156 244.335938 300.90625 244.289062 301.273438 244.234375 L 300.597656 250.757812 C 301.882812 252.273438 306 249.292969 307.140625 248.882812 C 307.332031 248.8125 309.847656 247.625 309.792969 247.425781 C 309.289062 245.566406 307.972656 243.285156 308.066406 241.695312 " fill-opacity="1" fill-rule="nonzero"/><path fill="#ffd471" d="M 263.476562 288.011719 C 260.625 289.746094 256.40625 288.015625 254.054688 284.148438 C 251.703125 280.28125 252.113281 275.738281 254.964844 274.003906 C 257.820312 272.273438 262.042969 274.003906 264.390625 277.871094 C 266.742188 281.738281 266.335938 286.277344 263.476562 288.011719 Z M 272.714844 272.820312 C 266.277344 262.230469 253.480469 258.246094 244.132812 263.921875 C 236.058594 268.820312 233.210938 279.320312 236.722656 288.910156 L 189.214844 317.753906 L 186.382812 325.226562 L 190.203125 325.675781 C 191.960938 326.15625 193.71875 326.644531 195.472656 327.136719 C 196.21875 327.347656 197.191406 327.835938 197.976562 327.808594 C 198.730469 327.777344 199.675781 326.960938 200.320312 326.59375 C 200.785156 326.324219 200.847656 325.628906 200.453125 325.269531 C 199.570312 324.449219 200.679688 323.136719 201.53125 322.835938 C 202.695312 322.4375 204.035156 322.691406 205.234375 322.734375 C 207.351562 322.816406 209.628906 322.160156 210.390625 319.988281 L 210.40625 319.875 C 210.453125 319.714844 210.484375 319.558594 210.503906 319.394531 C 210.523438 319.28125 210.546875 319.171875 210.574219 319.054688 L 210.609375 318.972656 L 210.664062 318.859375 C 210.714844 318.753906 210.777344 318.65625 210.839844 318.5625 L 210.847656 318.546875 L 210.855469 318.535156 L 210.953125 318.417969 C 211.292969 318.011719 211.601562 317.777344 212 317.488281 C 212.113281 317.410156 212.226562 317.320312 212.339844 317.238281 C 212.503906 317.226562 212.667969 317.210938 212.84375 317.210938 C 214.539062 317.171875 216.488281 317.242188 217.679688 315.804688 C 218.242188 315.128906 218.378906 314.28125 218.671875 313.476562 C 218.949219 312.726562 219.429688 312.125 220.101562 311.691406 C 221.421875 310.839844 223.101562 310.78125 224.433594 311.625 L 224.460938 311.640625 C 224.664062 311.789062 224.882812 311.914062 225.148438 311.960938 C 225.625 312.046875 226.050781 311.808594 226.4375 311.558594 C 226.9375 311.226562 227.433594 310.875 227.933594 310.535156 C 230.039062 309.125 232.144531 307.730469 234.265625 306.347656 C 234.335938 306.304688 234.378906 306.238281 234.402344 306.175781 C 234.757812 305.890625 234.808594 305.363281 234.46875 305.03125 C 233.796875 304.378906 233.207031 303.683594 232.667969 302.933594 C 233.644531 303.027344 234.617188 303.121094 235.585938 303.214844 C 236.71875 303.335938 237.992188 303.636719 239.101562 303.261719 C 240.332031 302.832031 241.441406 301.734375 242.480469 300.976562 C 243.078125 300.53125 243.679688 300.089844 244.28125 299.644531 C 251.082031 305.277344 260.265625 306.621094 267.4375 302.273438 C 276.785156 296.597656 279.148438 283.410156 272.714844 272.820312 " fill-opacity="1" fill-rule="nonzero"/><path fill="#ffbc33" d="M 238.996094 293.3125 C 238.910156 293.226562 238.78125 293.207031 238.675781 293.273438 L 187.332031 324.238281 C 187.207031 324.316406 187.167969 324.484375 187.242188 324.605469 C 187.320312 324.734375 187.484375 324.769531 187.601562 324.691406 L 238.945312 293.722656 C 239.070312 293.648438 239.109375 293.480469 239.039062 293.363281 L 238.996094 293.3125 " fill-opacity="1" fill-rule="nonzero"/><path fill="#ffbc33" d="M 267.160156 269.808594 C 261.140625 263.933594 252.347656 262.285156 245.621094 266.367188 C 245.496094 266.441406 245.457031 266.605469 245.535156 266.730469 C 245.605469 266.851562 245.769531 266.894531 245.894531 266.820312 C 253.800781 262.015625 264.675781 265.414062 270.132812 274.390625 C 272.777344 278.742188 273.765625 283.742188 272.917969 288.464844 C 272.078125 293.179688 269.503906 297.050781 265.675781 299.375 C 265.550781 299.449219 265.515625 299.609375 265.589844 299.734375 C 265.664062 299.859375 265.824219 299.898438 265.949219 299.820312 C 269.90625 297.417969 272.566406 293.421875 273.441406 288.558594 C 274.308594 283.707031 273.292969 278.578125 270.582031 274.117188 C 269.601562 272.5 268.445312 271.054688 267.160156 269.808594 " fill-opacity="1" fill-rule="nonzero"/><path fill="#ffbc33" d="M 233.320312 305.183594 C 233.234375 305.101562 233.105469 305.085938 233.003906 305.148438 L 223.65625 310.820312 C 223.53125 310.894531 223.492188 311.054688 223.570312 311.179688 C 223.644531 311.304688 223.804688 311.34375 223.929688 311.269531 L 233.273438 305.597656 C 233.394531 305.519531 233.433594 305.359375 233.363281 305.234375 L 233.320312 305.183594 " fill-opacity="1" fill-rule="nonzero"/><path fill="#bf7968" d="M 279.332031 285.765625 C 279.984375 285.414062 280.648438 285.078125 281.3125 284.742188 L 279.292969 281.203125 C 278.761719 281.269531 278.222656 281.242188 277.679688 281.054688 C 276.414062 280.632812 274.953125 280.054688 273.554688 280.277344 C 273.210938 280.328125 272.890625 280.546875 272.996094 280.917969 C 273.113281 281.355469 273.605469 281.441406 273.964844 281.59375 C 274.34375 281.746094 274.597656 282.011719 274.511719 282.464844 C 274.460938 282.769531 274.066406 283.03125 273.816406 283.179688 C 273.445312 283.402344 273.046875 283.589844 272.648438 283.753906 C 271.832031 284.109375 270.980469 284.265625 270.140625 284.542969 C 269.789062 284.65625 269.355469 284.980469 269.546875 285.378906 C 269.742188 285.820312 270.328125 285.699219 270.777344 285.652344 C 270.34375 285.859375 269.746094 286.117188 269.882812 286.628906 C 269.996094 287.03125 270.414062 287.050781 270.832031 287.007812 C 270.441406 287.183594 270.132812 287.472656 270.433594 287.882812 C 270.625 288.152344 271.03125 288.144531 271.441406 288.054688 C 271.289062 288.128906 271.132812 288.199219 270.984375 288.285156 L 270.949219 288.351562 C 271.042969 288.867188 271.535156 288.945312 272.015625 288.894531 C 272.960938 288.796875 273.914062 288.597656 274.84375 288.414062 C 275.640625 288.253906 276.46875 288.058594 277.15625 287.597656 C 277.492188 287.375 277.753906 287.082031 278.027344 286.792969 C 278.417969 286.371094 278.824219 286.046875 279.332031 285.765625 " fill-opacity="1" fill-rule="nonzero"/><path fill="#2a817d" d="M 270.707031 312.761719 C 284.71875 325.628906 310.171875 326.625 310.152344 326.527344 C 309.066406 320.160156 310.585938 313.785156 311.605469 307.515625 C 312.5 302.027344 312.753906 296.511719 312.03125 290.984375 C 311.679688 288.273438 311.066406 285.621094 310.375 282.976562 C 309.667969 280.269531 309 277.488281 309.3125 274.671875 C 309.605469 272.046875 310.652344 269.589844 311.554688 267.136719 C 312.40625 264.8125 313.0625 262.460938 313.207031 259.980469 C 313.480469 255.289062 312.238281 250.554688 309.574219 246.683594 C 307.550781 247.964844 303.882812 248.859375 300.746094 249.292969 L 300.824219 248.5625 C 297.757812 252.425781 294.722656 257.296875 292.867188 261.871094 C 291.359375 265.585938 290.308594 269.488281 289.695312 273.453125 C 287.171875 275.296875 281.496094 279.117188 278.96875 280.960938 C 279.800781 282.324219 280.238281 283.640625 280.40625 285.644531 C 281.988281 285.660156 287.640625 283.605469 288.933594 282.757812 C 288.722656 284.945312 288.207031 287.007812 287.042969 288.929688 C 285.824219 290.945312 273.03125 308.4375 270.707031 312.761719 " fill-opacity="1" fill-rule="nonzero"/><path fill="#236b68" d="M 288.890625 282.707031 C 291.742188 281.28125 294.550781 279.722656 297.066406 277.75 C 299.246094 276.039062 301.199219 274.035156 302.867188 271.824219 C 306.132812 267.492188 308.339844 262.355469 309.136719 256.984375 C 309.394531 255.285156 309.730469 253.25 308.722656 251.71875 C 307.507812 249.863281 305.253906 250.378906 303.792969 251.621094 C 303.726562 251.679688 303.632812 251.582031 303.699219 251.527344 C 304.664062 250.707031 306 250.070312 307.28125 250.449219 C 308.53125 250.804688 309.238281 252.042969 309.445312 253.257812 C 309.6875 254.734375 309.402344 256.308594 309.148438 257.761719 C 308.890625 259.234375 308.53125 260.691406 308.066406 262.117188 C 306.261719 267.714844 302.941406 272.820312 298.527344 276.707031 C 295.667969 279.226562 292.355469 281.125 288.957031 282.824219 C 288.882812 282.859375 288.8125 282.742188 288.890625 282.707031 " fill-opacity="1" fill-rule="nonzero"/><path fill="#236b68" d="M 301.558594 256.523438 C 299.652344 259.320312 298.414062 262.476562 296.835938 265.460938 C 296.082031 266.882812 295.25 268.265625 294.230469 269.519531 C 293.074219 270.945312 291.644531 272.089844 290.28125 273.316406 C 290.21875 273.375 290.121094 273.28125 290.1875 273.222656 C 291.523438 272.019531 292.929688 270.890625 294.074219 269.496094 C 295.152344 268.1875 296.027344 266.71875 296.808594 265.214844 C 298.34375 262.289062 299.574219 259.195312 301.445312 256.457031 C 301.496094 256.382812 301.609375 256.449219 301.558594 256.523438 " fill-opacity="1" fill-rule="nonzero"/><path fill="#12252e" d="M 297.328125 224.640625 C 298.242188 224.027344 299.214844 224.867188 300.132812 224.457031 C 303.222656 223.085938 306.082031 222.949219 308.378906 223.488281 C 309.945312 223.851562 311.085938 224.648438 311.964844 225.660156 C 312.378906 225.058594 312.9375 224.613281 313.625 224.429688 C 315.503906 223.914062 317.574219 225.488281 318.246094 227.9375 C 318.914062 230.394531 318.074219 233.898438 316.191406 234.414062 C 315.652344 234.5625 314.949219 234.480469 314.417969 234.3125 C 314.488281 238.203125 313.519531 241.929688 309.796875 243.058594 C 306.710938 243.992188 306.808594 240.941406 306.109375 239.488281 C 305.4375 238.089844 303.300781 237.535156 302.363281 234.839844 C 302.183594 234.308594 301.429688 232.617188 300.335938 231.679688 C 298.808594 230.371094 295.859375 231.210938 295.867188 227.523438 C 295.871094 226.433594 296.390625 225.269531 297.328125 224.640625 " fill-opacity="1" fill-rule="nonzero"/><path fill="#ffa18a" d="M 193.054688 316.261719 C 193.53125 316.445312 193.996094 316.648438 194.460938 316.851562 C 194.902344 317.050781 195.703125 317.601562 196.167969 317.136719 C 196.585938 316.710938 196.097656 316.1875 195.777344 315.894531 C 195.121094 315.285156 194.382812 314.578125 193.542969 314.238281 C 192.652344 313.878906 191.679688 314.003906 190.75 313.859375 C 189.59375 313.6875 188.613281 313.054688 187.972656 312.066406 C 186.640625 313.210938 185.003906 314.699219 184.019531 315.609375 C 184.496094 316.359375 185.222656 316.910156 185.589844 317.726562 C 185.949219 318.527344 186.0625 319.394531 186.433594 320.183594 C 187.082031 321.5625 188.164062 322.691406 189.351562 323.617188 C 189.746094 323.921875 190.273438 324.378906 190.808594 324.144531 C 190.953125 324.085938 191.066406 323.839844 191.164062 323.800781 C 191.332031 323.738281 191.628906 323.921875 191.828125 323.953125 C 192.226562 324.027344 192.761719 324.011719 193.042969 323.679688 C 193.328125 323.339844 193.171875 322.976562 192.933594 322.683594 C 193.519531 322.960938 194.394531 323.277344 194.894531 322.988281 C 195.320312 322.746094 195.132812 322.316406 194.898438 322.003906 C 195.441406 322.195312 196.070312 322.359375 196.5625 321.988281 C 196.984375 321.671875 196.832031 321.25 196.550781 320.882812 C 196.125 320.316406 195.4375 320.042969 194.875 319.644531 C 194.015625 319.042969 193.535156 318.046875 193.105469 317.117188 C 193 316.886719 192.875 316.648438 192.792969 316.402344 C 192.6875 316.082031 192.742188 316.140625 193.054688 316.261719 " fill-opacity="1" fill-rule="nonzero"/><path fill="#4693b9" d="M 185.878906 305.59375 C 184.515625 303.214844 182.832031 301.0625 181.398438 298.734375 C 179.679688 295.933594 179.636719 293.085938 179.402344 289.914062 C 179.386719 289.722656 179.351562 289.527344 179.335938 289.335938 C 180.488281 288.800781 181.679688 288.277344 182.667969 287.511719 C 183.65625 286.746094 184.328125 285.675781 184.699219 284.484375 C 185.429688 282.140625 185.078125 280.769531 185.105469 278.933594 C 185.105469 278.933594 183.988281 275.867188 183.875 275.132812 C 183.511719 272.746094 184.539062 267.734375 182.449219 267.941406 C 170.445312 264.625 157.203125 266.957031 147.28125 274.566406 C 142.675781 278.097656 138.847656 282.621094 136.117188 287.742188 C 135.515625 288.875 132.976562 294.222656 133.011719 295.496094 C 133.03125 295.953125 145.003906 302.050781 148.589844 303.101562 C 150.375 303.617188 158.707031 304.566406 160.78125 305.871094 C 161.980469 301.726562 164.503906 298.082031 168.039062 295.582031 C 168.394531 295.328125 168.765625 295.101562 169.148438 294.882812 C 169.488281 297.722656 170.242188 300.484375 171.949219 302.84375 C 173.554688 305.066406 175.546875 307.058594 177.351562 309.113281 C 179.460938 311.503906 181.507812 313.96875 183.808594 316.175781 C 185.242188 314.375 187.109375 313.265625 189.386719 312.882812 C 188.382812 310.375 187.222656 307.941406 185.878906 305.59375 " fill-opacity="1" fill-rule="nonzero"/><path fill="#387694" d="M 181.363281 267.882812 C 182.222656 269.929688 181.867188 272.28125 182.242188 274.433594 C 182.578125 276.375 183.28125 278.238281 184.53125 279.785156 C 184.585938 279.859375 184.691406 279.75 184.632812 279.679688 C 183.320312 278.050781 182.628906 276.0625 182.320312 274.011719 C 182.015625 271.96875 182.316406 269.78125 181.503906 267.84375 C 181.46875 267.757812 181.324219 267.792969 181.363281 267.882812 " fill-opacity="1" fill-rule="nonzero"/><path fill="#387694" d="M 179.441406 289.203125 C 180.082031 284.511719 180.699219 279.574219 178.6875 275.117188 C 178.648438 275.03125 178.519531 275.105469 178.558594 275.191406 C 180.550781 279.609375 179.933594 284.519531 179.300781 289.164062 C 179.28125 289.25 179.425781 289.296875 179.441406 289.203125 " fill-opacity="1" fill-rule="nonzero"/><path fill="#387694" d="M 169.152344 294.761719 C 168.722656 292.386719 168.285156 290.011719 167.847656 287.636719 C 167.390625 285.113281 166.886719 282.59375 167.089844 280.011719 C 167.269531 277.792969 167.855469 275.496094 169.246094 273.703125 C 170.648438 271.890625 172.921875 270.746094 175.230469 271.183594 C 175.324219 271.207031 175.363281 271.066406 175.265625 271.042969 C 173.292969 270.664062 171.296875 271.40625 169.863281 272.78125 C 168.257812 274.324219 167.445312 276.523438 167.101562 278.675781 C 166.679688 281.320312 167.015625 283.886719 167.488281 286.488281 C 167.996094 289.257812 168.503906 292.027344 169.011719 294.804688 C 169.027344 294.898438 169.167969 294.859375 169.152344 294.761719 " fill-opacity="1" fill-rule="nonzero"/><path fill="#a2ddd0" d="M 48.421875 218.597656 C 47.871094 219.210938 47.628906 219.863281 47.707031 220.539062 C 47.777344 221.179688 48.082031 221.746094 48.597656 222.210938 C 49.125 222.675781 49.714844 222.910156 50.363281 222.898438 C 51.027344 222.886719 51.644531 222.570312 52.1875 221.957031 C 52.734375 221.347656 52.980469 220.699219 52.925781 220.035156 C 52.867188 219.382812 52.570312 218.820312 52.046875 218.351562 C 51.527344 217.886719 50.925781 217.652344 50.273438 217.660156 C 49.597656 217.664062 48.972656 217.980469 48.421875 218.597656 Z M 43.78125 203.171875 C 45.441406 204.652344 46.398438 206.878906 46.628906 209.792969 L 46.769531 212.519531 C 46.890625 213.589844 47.558594 214.691406 48.765625 215.769531 L 49.25 216.203125 L 46.199219 219.625 L 45.710938 219.171875 C 44.617188 218.164062 43.867188 217.269531 43.421875 216.4375 C 42.964844 215.59375 42.675781 214.484375 42.53125 213.050781 L 42.296875 209.71875 C 42.144531 208.417969 41.65625 207.40625 40.8125 206.652344 C 40.015625 205.941406 39.238281 205.597656 38.449219 205.613281 C 37.675781 205.628906 36.960938 206.019531 36.253906 206.804688 C 35.554688 207.589844 35.210938 208.367188 35.203125 209.179688 C 35.191406 209.957031 35.507812 210.621094 36.167969 211.210938 L 36.652344 211.644531 L 33.601562 215.058594 L 33.113281 214.613281 C 31.570312 213.199219 30.796875 211.488281 30.8125 209.53125 C 30.832031 207.59375 31.617188 205.746094 33.148438 204.035156 C 34.742188 202.246094 36.5 201.273438 38.386719 201.125 C 40.28125 200.980469 42.097656 201.667969 43.78125 203.171875 " fill-opacity="1" fill-rule="nonzero"/><path fill="#4693b9" d="M 66.746094 211.113281 C 66.097656 211.320312 65.648438 211.6875 65.421875 212.199219 C 65.203125 212.691406 65.183594 213.214844 65.359375 213.765625 C 65.535156 214.316406 65.863281 214.726562 66.328125 214.992188 C 66.804688 215.261719 67.375 215.292969 68.023438 215.085938 C 68.667969 214.878906 69.113281 214.523438 69.351562 214.023438 C 69.582031 213.539062 69.609375 213.007812 69.433594 212.457031 C 69.253906 211.90625 68.925781 211.488281 68.457031 211.222656 C 67.96875 210.9375 67.394531 210.90625 66.746094 211.113281 Z M 69.894531 198.183594 C 70.460938 199.933594 70.207031 201.921875 69.15625 204.097656 L 68.113281 206.097656 C 67.75 206.910156 67.765625 207.976562 68.171875 209.242188 L 68.339844 209.757812 L 64.730469 210.917969 L 64.574219 210.394531 C 64.214844 209.21875 64.058594 208.265625 64.085938 207.488281 C 64.113281 206.695312 64.371094 205.785156 64.871094 204.699219 L 66.097656 202.230469 C 66.535156 201.238281 66.613281 200.3125 66.324219 199.425781 C 66.054688 198.582031 65.644531 198.011719 65.074219 197.691406 C 64.519531 197.382812 63.84375 197.359375 63.011719 197.625 C 62.183594 197.890625 61.617188 198.300781 61.265625 198.875 C 60.933594 199.425781 60.882812 200.03125 61.105469 200.726562 L 61.269531 201.238281 L 57.664062 202.394531 L 57.503906 201.875 C 56.996094 200.222656 57.160156 198.675781 57.996094 197.289062 C 58.816406 195.921875 60.148438 194.929688 61.957031 194.351562 C 63.839844 193.746094 65.507812 193.785156 66.910156 194.46875 C 68.320312 195.160156 69.324219 196.414062 69.894531 198.183594 " fill-opacity="1" fill-rule="nonzero"/></svg>