<svg xmlns="http://www.w3.org/2000/svg" xmlns:xlink="http://www.w3.org/1999/xlink" width="500" zoomAndPan="magnify" viewBox="0 0 375 374.999991" height="500" preserveAspectRatio="xMidYMid meet" version="1.0"><path fill="#bfdbf0" d="M 316.6875 206.71875 L 316.6875 19.402344 C 316.6875 8.699219 308.015625 0.0234375 297.316406 0.0234375 L 77.757812 0.0234375 L 97.132812 206.71875 Z M 316.6875 206.71875 " fill-opacity="1" fill-rule="nonzero"/><path fill="#9ebbce" d="M 58.386719 206.71875 L 58.386719 19.402344 C 58.386719 8.699219 67.058594 0.0234375 77.757812 0.0234375 C 88.457031 0.0234375 97.132812 8.699219 97.132812 19.402344 L 97.132812 206.71875 Z M 58.386719 206.71875 " fill-opacity="1" fill-rule="nonzero"/><path fill="#e1efff" d="M 149.179688 174.421875 C 140.4375 159.402344 135.847656 142.328125 135.878906 124.945312 L 135.878906 63.003906 C 135.875 57.515625 139.933594 52.875 145.371094 52.152344 C 164.941406 50.011719 184.230469 45.789062 202.90625 39.554688 C 205.476562 38.523438 208.34375 38.523438 210.914062 39.554688 C 229.589844 45.785156 248.878906 50.011719 268.449219 52.152344 C 273.886719 52.875 277.945312 57.515625 277.945312 63.003906 L 277.945312 124.945312 C 277.933594 149.320312 268.917969 172.828125 252.628906 190.960938 Z M 149.179688 174.421875 " fill-opacity="1" fill-rule="nonzero"/><path fill="#e8bc5b" d="M 181.339844 174.746094 C 168.6875 161.257812 161.664062 143.441406 161.707031 124.945312 L 161.707031 81.410156 C 161.699219 78.234375 164 75.523438 167.132812 75.015625 C 179.9375 73.003906 192.582031 70.089844 204.972656 66.296875 C 206.226562 65.84375 207.597656 65.84375 208.847656 66.296875 C 221.242188 70.089844 233.886719 73.003906 246.691406 75.015625 C 249.8125 75.542969 252.101562 78.242188 252.113281 81.410156 L 252.113281 124.945312 C 252.175781 145.4375 243.539062 164.996094 228.351562 178.75 Z M 181.339844 174.746094 " fill-opacity="1" fill-rule="nonzero"/><path fill="#916243" d="M 297.1875 274.089844 C 304.386719 279.617188 305.742188 289.9375 300.210938 297.136719 C 299.175781 298.488281 297.9375 299.667969 296.542969 300.636719 C 290.644531 304.332031 283.074219 303.96875 277.554688 299.730469 L 283.304688 303.929688 C 290.339844 309.3125 291.878906 319.285156 286.789062 326.535156 C 281.523438 333.714844 271.441406 335.277344 264.253906 330.023438 L 259.023438 326.214844 C 266.199219 331.417969 267.800781 341.460938 262.597656 348.640625 C 262.566406 348.679688 262.539062 348.71875 262.511719 348.757812 C 257.175781 355.820312 247.195312 357.363281 239.972656 352.242188 L 237.457031 350.433594 C 243.070312 354.835938 244.054688 362.957031 239.652344 368.570312 C 235.441406 373.949219 227.769531 375.113281 222.152344 371.234375 L 197.546875 353.210938 L 89.253906 295.078125 C 72.914062 279.644531 32.554688 284.230469 32.554688 284.230469 L 26.097656 200.261719 L 81.117188 200.261719 C 86.953125 200.242188 92.617188 198.261719 97.195312 194.640625 C 111.753906 182.496094 129.859375 175.402344 148.792969 174.421875 C 158.960938 174.324219 169.117188 175.121094 179.140625 176.8125 Z M 297.1875 274.089844 " fill-opacity="1" fill-rule="nonzero"/><path fill="#daab94" d="M 348.976562 193.800781 L 342.519531 277.769531 C 329.074219 277.480469 315.632812 278.410156 302.355469 280.546875 C 301.222656 277.980469 299.441406 275.753906 297.1875 274.089844 L 204.714844 209.691406 C 202.222656 207.964844 198.863281 208.207031 196.644531 210.273438 L 163.96875 240.628906 C 158.1875 246.4375 149.015625 247.097656 142.464844 242.179688 C 135.136719 236.367188 133.910156 225.714844 139.722656 218.386719 C 139.835938 218.242188 139.957031 218.097656 140.074219 217.957031 L 178.949219 177.007812 L 179.144531 176.8125 C 188.074219 167.882812 201.671875 165.578125 213.046875 171.0625 L 255.535156 192.445312 C 257.316406 193.347656 259.289062 193.8125 261.285156 193.800781 Z M 348.976562 193.800781 " fill-opacity="1" fill-rule="nonzero"/><path fill="#818cff" d="M 6.726562 187.339844 L 26.097656 187.339844 C 29.664062 187.339844 32.558594 190.234375 32.558594 193.800781 L 32.558594 290.6875 C 32.558594 294.257812 29.664062 297.148438 26.097656 297.148438 L 6.726562 297.148438 C 3.160156 297.148438 0.269531 294.253906 0.269531 290.6875 L 0.269531 193.800781 C 0.269531 190.234375 3.160156 187.339844 6.726562 187.339844 Z M 6.726562 187.339844 " fill-opacity="1" fill-rule="nonzero"/><path fill="#daab94" d="M 202.203125 341.660156 C 202.261719 344.015625 201.65625 346.339844 200.453125 348.371094 L 188.3125 368.457031 C 184.601562 374.558594 176.652344 376.496094 170.554688 372.785156 C 164.453125 369.074219 162.519531 361.121094 166.226562 355.023438 L 167.90625 352.246094 C 163.28125 359.890625 153.34375 362.347656 145.691406 357.734375 C 138.339844 352.894531 135.976562 343.199219 140.269531 335.515625 C 135.667969 343.128906 125.773438 345.570312 118.164062 340.96875 C 118.148438 340.960938 118.132812 340.953125 118.117188 340.941406 C 110.789062 336.246094 108.359375 326.667969 112.566406 319.042969 C 107.734375 326.300781 98.117188 328.585938 90.542969 324.277344 C 82.925781 319.632812 80.476562 309.714844 85.054688 302.058594 L 97.195312 281.96875 C 101.914062 274.449219 111.757812 272.042969 119.410156 276.542969 C 127.015625 281.132812 129.460938 291.023438 124.875 298.632812 C 124.859375 298.652344 124.847656 298.675781 124.832031 298.699219 L 128.191406 293.144531 C 132.816406 285.535156 142.726562 283.109375 150.339844 287.71875 C 157.777344 292.5 160.160156 302.269531 155.765625 309.9375 L 152.601562 315.105469 C 157.347656 307.71875 167.113281 305.453125 174.621094 310 C 182.058594 314.75 184.445312 324.507812 180.046875 332.15625 L 178.367188 334.933594 C 182.089844 328.851562 190.023438 326.917969 196.125 330.605469 C 199.898438 333.015625 202.1875 337.179688 202.203125 341.660156 Z M 202.203125 341.660156 " fill-opacity="1" fill-rule="nonzero"/><path fill="#818cff" d="M 348.976562 180.882812 L 368.351562 180.882812 C 371.917969 180.882812 374.808594 183.773438 374.808594 187.339844 L 374.808594 284.230469 C 374.808594 287.796875 371.917969 290.6875 368.351562 290.6875 L 348.976562 290.6875 C 345.410156 290.6875 342.519531 287.796875 342.519531 284.230469 L 342.519531 187.339844 C 342.519531 183.773438 345.410156 180.882812 348.976562 180.882812 Z M 348.976562 180.882812 " fill-opacity="1" fill-rule="nonzero"/><path fill="#ffffff" d="M 200.453125 142.125 C 198.742188 142.125 197.097656 141.445312 195.886719 140.234375 L 189.429688 133.777344 C 186.953125 131.210938 187.023438 127.121094 189.589844 124.640625 C 192.09375 122.226562 196.058594 122.226562 198.5625 124.640625 L 199.753906 125.835938 L 214.660156 105.957031 C 216.800781 103.105469 220.851562 102.527344 223.703125 104.671875 C 226.550781 106.8125 227.125 110.855469 224.992188 113.707031 L 205.617188 139.542969 C 204.5 141.046875 202.78125 141.992188 200.910156 142.128906 L 200.453125 142.128906 Z M 200.453125 142.125 " fill-opacity="1" fill-rule="nonzero"/><path fill="#704d36" d="M 240.230469 368.328125 L 214.917969 350.242188 C 212.011719 348.15625 211.347656 344.105469 213.433594 341.199219 C 215.519531 338.292969 219.566406 337.625 222.472656 339.714844 L 237.453125 350.4375 C 243.132812 354.628906 244.371094 362.613281 240.230469 368.328125 Z M 240.230469 368.328125 " fill-opacity="1" fill-rule="nonzero"/><path fill="#704d36" d="M 264.1875 345.914062 L 225.765625 318.207031 C 222.878906 316.109375 222.234375 312.070312 224.332031 309.183594 C 224.335938 309.175781 224.339844 309.167969 224.347656 309.164062 C 226.417969 306.292969 230.421875 305.644531 233.289062 307.71875 C 233.300781 307.726562 233.308594 307.734375 233.320312 307.742188 L 259.410156 326.539062 C 265.308594 331.101562 267.289062 339.128906 264.1875 345.914062 Z M 264.1875 345.914062 " fill-opacity="1" fill-rule="nonzero"/><path fill="#704d36" d="M 288.40625 323.5 L 247.207031 293.855469 C 244.308594 291.761719 243.644531 287.71875 245.71875 284.8125 C 247.832031 281.945312 251.84375 281.285156 254.761719 283.324219 L 277.75 299.863281 L 283.304688 303.929688 C 289.300781 308.503906 291.40625 316.582031 288.40625 323.5 Z M 288.40625 323.5 " fill-opacity="1" fill-rule="nonzero"/></svg>