<svg xmlns="http://www.w3.org/2000/svg" xmlns:xlink="http://www.w3.org/1999/xlink" width="1000" zoomAndPan="magnify" viewBox="0 0 750 374.999991" height="500" preserveAspectRatio="xMidYMid meet" version="1.0"><defs><g/><clipPath id="4713b303f1"><path d="M 18.882812 55.675781 L 285.695312 55.675781 L 285.695312 322.675781 L 18.882812 322.675781 Z M 18.882812 55.675781 " clip-rule="nonzero"/></clipPath></defs><g clip-path="url(#4713b303f1)"><path fill="#044bab" d="M 152.304688 55.675781 L 285.695312 189.070312 L 285.695312 55.675781 Z M 152.304688 55.675781 L 152.304688 189.070312 L 18.898438 55.675781 Z M 152.304688 322.476562 L 18.910156 189.082031 L 152.304688 189.082031 Z M 285.695312 322.476562 L 152.304688 189.082031 L 285.695312 189.082031 Z M 285.695312 322.476562 " fill-opacity="1" fill-rule="nonzero"/></g><g fill="#ffffff" fill-opacity="1"><g transform="translate(336.653629, 260.305988)"><g><path d="M 4.265625 -26.171875 L 7.03125 -26.171875 L 7.03125 0 L 4.265625 0 Z M 4.265625 -26.171875 "/></g></g></g><g fill="#ffffff" fill-opacity="1"><g transform="translate(355.941448, 260.305988)"><g><path d="M 26.140625 -26.171875 L 26.140625 0 L 23.859375 0 L 7.03125 -21.234375 L 7.03125 0 L 4.265625 0 L 4.265625 -26.171875 L 6.546875 -26.171875 L 23.40625 -4.9375 L 23.40625 -26.171875 Z M 26.140625 -26.171875 "/></g></g></g><g fill="#ffffff" fill-opacity="1"><g transform="translate(394.321605, 260.305988)"><g><path d="M 11.484375 0.21875 C 9.535156 0.21875 7.671875 -0.0859375 5.890625 -0.703125 C 4.109375 -1.328125 2.726562 -2.148438 1.75 -3.171875 L 2.84375 -5.3125 C 3.789062 -4.363281 5.046875 -3.59375 6.609375 -3 C 8.179688 -2.414062 9.804688 -2.125 11.484375 -2.125 C 13.828125 -2.125 15.582031 -2.554688 16.75 -3.421875 C 17.925781 -4.285156 18.515625 -5.398438 18.515625 -6.765625 C 18.515625 -7.816406 18.191406 -8.648438 17.546875 -9.265625 C 16.910156 -9.890625 16.128906 -10.367188 15.203125 -10.703125 C 14.285156 -11.046875 13.003906 -11.414062 11.359375 -11.8125 C 9.390625 -12.3125 7.816406 -12.789062 6.640625 -13.25 C 5.472656 -13.71875 4.472656 -14.421875 3.640625 -15.359375 C 2.804688 -16.304688 2.390625 -17.59375 2.390625 -19.21875 C 2.390625 -20.539062 2.738281 -21.742188 3.4375 -22.828125 C 4.132812 -23.910156 5.207031 -24.773438 6.65625 -25.421875 C 8.101562 -26.066406 9.898438 -26.390625 12.046875 -26.390625 C 13.535156 -26.390625 14.992188 -26.179688 16.421875 -25.765625 C 17.859375 -25.359375 19.101562 -24.796875 20.15625 -24.078125 L 19.21875 -21.875 C 18.125 -22.59375 16.953125 -23.132812 15.703125 -23.5 C 14.453125 -23.863281 13.234375 -24.046875 12.046875 -24.046875 C 9.742188 -24.046875 8.015625 -23.601562 6.859375 -22.71875 C 5.703125 -21.832031 5.125 -20.691406 5.125 -19.296875 C 5.125 -18.242188 5.441406 -17.398438 6.078125 -16.765625 C 6.710938 -16.128906 7.507812 -15.644531 8.46875 -15.3125 C 9.425781 -14.976562 10.71875 -14.609375 12.34375 -14.203125 C 14.257812 -13.734375 15.804688 -13.265625 16.984375 -12.796875 C 18.171875 -12.335938 19.175781 -11.640625 20 -10.703125 C 20.820312 -9.773438 21.234375 -8.515625 21.234375 -6.921875 C 21.234375 -5.597656 20.878906 -4.394531 20.171875 -3.3125 C 19.460938 -2.226562 18.367188 -1.367188 16.890625 -0.734375 C 15.421875 -0.0976562 13.617188 0.21875 11.484375 0.21875 Z M 11.484375 0.21875 "/></g></g></g><g fill="#ffffff" fill-opacity="1"><g transform="translate(425.303938, 260.305988)"><g><path d="M 14.8125 0.21875 C 11.414062 0.21875 8.769531 -0.75 6.875 -2.6875 C 4.976562 -4.632812 4.03125 -7.46875 4.03125 -11.1875 L 4.03125 -26.171875 L 6.8125 -26.171875 L 6.8125 -11.296875 C 6.8125 -8.253906 7.492188 -5.984375 8.859375 -4.484375 C 10.234375 -2.992188 12.21875 -2.25 14.8125 -2.25 C 17.425781 -2.25 19.414062 -2.992188 20.78125 -4.484375 C 22.15625 -5.984375 22.84375 -8.253906 22.84375 -11.296875 L 22.84375 -26.171875 L 25.53125 -26.171875 L 25.53125 -11.1875 C 25.53125 -7.46875 24.585938 -4.632812 22.703125 -2.6875 C 20.828125 -0.75 18.195312 0.21875 14.8125 0.21875 Z M 14.8125 0.21875 "/></g></g></g><g fill="#ffffff" fill-opacity="1"><g transform="translate(462.899488, 260.305988)"><g><path d="M 22.140625 0 L 16.15625 -8.40625 C 15.476562 -8.332031 14.78125 -8.296875 14.0625 -8.296875 L 7.03125 -8.296875 L 7.03125 0 L 4.265625 0 L 4.265625 -26.171875 L 14.0625 -26.171875 C 17.394531 -26.171875 20.007812 -25.375 21.90625 -23.78125 C 23.800781 -22.1875 24.75 -19.992188 24.75 -17.203125 C 24.75 -15.160156 24.234375 -13.429688 23.203125 -12.015625 C 22.171875 -10.609375 20.691406 -9.59375 18.765625 -8.96875 L 25.15625 0 Z M 13.984375 -10.65625 C 16.578125 -10.65625 18.554688 -11.226562 19.921875 -12.375 C 21.296875 -13.519531 21.984375 -15.128906 21.984375 -17.203125 C 21.984375 -19.316406 21.296875 -20.941406 19.921875 -22.078125 C 18.554688 -23.210938 16.578125 -23.78125 13.984375 -23.78125 L 7.03125 -23.78125 L 7.03125 -10.65625 Z M 13.984375 -10.65625 "/></g></g></g><g fill="#ffffff" fill-opacity="1"><g transform="translate(497.916998, 260.305988)"><g><path d="M 20.671875 -6.984375 L 6.09375 -6.984375 L 2.953125 0 L 0.078125 0 L 12.046875 -26.171875 L 14.765625 -26.171875 L 26.734375 0 L 23.8125 0 Z M 19.671875 -9.234375 L 13.390625 -23.296875 L 7.109375 -9.234375 Z M 19.671875 -9.234375 "/></g></g></g><g fill="#ffffff" fill-opacity="1"><g transform="translate(532.710319, 260.305988)"><g><path d="M 26.140625 -26.171875 L 26.140625 0 L 23.859375 0 L 7.03125 -21.234375 L 7.03125 0 L 4.265625 0 L 4.265625 -26.171875 L 6.546875 -26.171875 L 23.40625 -4.9375 L 23.40625 -26.171875 Z M 26.140625 -26.171875 "/></g></g></g><g fill="#ffffff" fill-opacity="1"><g transform="translate(571.090477, 260.305988)"><g><path d="M 15.625 0.21875 C 13.03125 0.21875 10.691406 -0.351562 8.609375 -1.5 C 6.535156 -2.644531 4.90625 -4.234375 3.71875 -6.265625 C 2.53125 -8.296875 1.9375 -10.570312 1.9375 -13.09375 C 1.9375 -15.601562 2.53125 -17.875 3.71875 -19.90625 C 4.90625 -21.9375 6.546875 -23.523438 8.640625 -24.671875 C 10.734375 -25.816406 13.078125 -26.390625 15.671875 -26.390625 C 17.609375 -26.390625 19.398438 -26.066406 21.046875 -25.421875 C 22.691406 -24.773438 24.085938 -23.828125 25.234375 -22.578125 L 23.484375 -20.828125 C 21.441406 -22.898438 18.859375 -23.9375 15.734375 -23.9375 C 13.671875 -23.9375 11.789062 -23.460938 10.09375 -22.515625 C 8.394531 -21.566406 7.066406 -20.269531 6.109375 -18.625 C 5.148438 -16.976562 4.671875 -15.132812 4.671875 -13.09375 C 4.671875 -11.039062 5.148438 -9.191406 6.109375 -7.546875 C 7.066406 -5.898438 8.394531 -4.601562 10.09375 -3.65625 C 11.789062 -2.71875 13.671875 -2.25 15.734375 -2.25 C 18.878906 -2.25 21.460938 -3.296875 23.484375 -5.390625 L 25.234375 -3.625 C 24.085938 -2.375 22.6875 -1.421875 21.03125 -0.765625 C 19.375 -0.109375 17.570312 0.21875 15.625 0.21875 Z M 15.625 0.21875 "/></g></g></g><g fill="#ffffff" fill-opacity="1"><g transform="translate(605.95855, 260.305988)"><g><path d="M 22.765625 -2.390625 L 22.765625 0 L 4.265625 0 L 4.265625 -26.171875 L 22.203125 -26.171875 L 22.203125 -23.78125 L 7.03125 -23.78125 L 7.03125 -14.46875 L 20.5625 -14.46875 L 20.5625 -12.109375 L 7.03125 -12.109375 L 7.03125 -2.390625 Z M 22.765625 -2.390625 "/></g></g></g><g fill="#ffffff" fill-opacity="1"><g transform="translate(336.653629, 310.855628)"><g><path d="M 15.703125 0.21875 C 13.109375 0.21875 10.757812 -0.359375 8.65625 -1.515625 C 6.550781 -2.671875 4.90625 -4.257812 3.71875 -6.28125 C 2.53125 -8.300781 1.9375 -10.570312 1.9375 -13.09375 C 1.9375 -15.601562 2.53125 -17.867188 3.71875 -19.890625 C 4.90625 -21.910156 6.550781 -23.5 8.65625 -24.65625 C 10.757812 -25.8125 13.109375 -26.390625 15.703125 -26.390625 C 18.296875 -26.390625 20.632812 -25.816406 22.71875 -24.671875 C 24.800781 -23.523438 26.4375 -21.9375 27.625 -19.90625 C 28.820312 -17.875 29.421875 -15.601562 29.421875 -13.09375 C 29.421875 -10.570312 28.820312 -8.296875 27.625 -6.265625 C 26.4375 -4.234375 24.800781 -2.644531 22.71875 -1.5 C 20.632812 -0.351562 18.296875 0.21875 15.703125 0.21875 Z M 15.703125 -2.25 C 17.773438 -2.25 19.644531 -2.710938 21.3125 -3.640625 C 22.976562 -4.578125 24.285156 -5.875 25.234375 -7.53125 C 26.179688 -9.1875 26.65625 -11.039062 26.65625 -13.09375 C 26.65625 -15.132812 26.179688 -16.984375 25.234375 -18.640625 C 24.285156 -20.296875 22.976562 -21.59375 21.3125 -22.53125 C 19.644531 -23.46875 17.773438 -23.9375 15.703125 -23.9375 C 13.628906 -23.9375 11.75 -23.46875 10.0625 -22.53125 C 8.382812 -21.59375 7.066406 -20.296875 6.109375 -18.640625 C 5.148438 -16.984375 4.671875 -15.132812 4.671875 -13.09375 C 4.671875 -11.039062 5.148438 -9.1875 6.109375 -7.53125 C 7.066406 -5.875 8.382812 -4.578125 10.0625 -3.640625 C 11.75 -2.710938 13.628906 -2.25 15.703125 -2.25 Z M 15.703125 -2.25 "/></g></g></g><g fill="#ffffff" fill-opacity="1"><g transform="translate(376.005221, 310.855628)"><g><path d="M 26.140625 -26.171875 L 26.140625 0 L 23.859375 0 L 7.03125 -21.234375 L 7.03125 0 L 4.265625 0 L 4.265625 -26.171875 L 6.546875 -26.171875 L 23.40625 -4.9375 L 23.40625 -26.171875 Z M 26.140625 -26.171875 "/></g></g></g><g fill="#ffffff" fill-opacity="1"><g transform="translate(414.385378, 310.855628)"><g><path d="M 4.265625 -26.171875 L 7.03125 -26.171875 L 7.03125 -2.390625 L 21.6875 -2.390625 L 21.6875 0 L 4.265625 0 Z M 4.265625 -26.171875 "/></g></g></g><g fill="#ffffff" fill-opacity="1"><g transform="translate(444.396276, 310.855628)"><g><path d="M 4.265625 -26.171875 L 7.03125 -26.171875 L 7.03125 0 L 4.265625 0 Z M 4.265625 -26.171875 "/></g></g></g><g fill="#ffffff" fill-opacity="1"><g transform="translate(463.684094, 310.855628)"><g><path d="M 26.140625 -26.171875 L 26.140625 0 L 23.859375 0 L 7.03125 -21.234375 L 7.03125 0 L 4.265625 0 L 4.265625 -26.171875 L 6.546875 -26.171875 L 23.40625 -4.9375 L 23.40625 -26.171875 Z M 26.140625 -26.171875 "/></g></g></g><g fill="#ffffff" fill-opacity="1"><g transform="translate(502.064252, 310.855628)"><g><path d="M 22.765625 -2.390625 L 22.765625 0 L 4.265625 0 L 4.265625 -26.171875 L 22.203125 -26.171875 L 22.203125 -23.78125 L 7.03125 -23.78125 L 7.03125 -14.46875 L 20.5625 -14.46875 L 20.5625 -12.109375 L 7.03125 -12.109375 L 7.03125 -2.390625 Z M 22.765625 -2.390625 "/></g></g></g><g fill="#ffffff" fill-opacity="1"><g transform="translate(535.074703, 310.855628)"><g/></g></g><g fill="#ffffff" fill-opacity="1"><g transform="translate(309.045634, 184.744653)"><g><path d="M 131.25 3.890625 L 117 -8.890625 C 111.445312 -5.304688 105.460938 -2.554688 99.046875 -0.640625 C 92.628906 1.265625 85.78125 2.21875 78.5 2.21875 C 68.5 2.21875 59.300781 0.460938 50.90625 -3.046875 C 42.519531 -6.566406 35.269531 -11.316406 29.15625 -17.296875 C 23.050781 -23.285156 18.300781 -30.320312 14.90625 -38.40625 C 11.507812 -46.5 9.8125 -55.171875 9.8125 -64.421875 L 9.8125 -64.796875 C 9.8125 -74.046875 11.535156 -82.710938 14.984375 -90.796875 C 18.441406 -98.878906 23.222656 -105.972656 29.328125 -112.078125 C 35.441406 -118.191406 42.726562 -123.007812 51.1875 -126.53125 C 59.644531 -130.050781 68.867188 -131.8125 78.859375 -131.8125 C 88.859375 -131.8125 98.050781 -130.050781 106.4375 -126.53125 C 114.832031 -123.007812 122.082031 -118.253906 128.1875 -112.265625 C 134.300781 -106.285156 139.054688 -99.253906 142.453125 -91.171875 C 145.847656 -83.085938 147.546875 -74.414062 147.546875 -65.15625 L 147.546875 -64.796875 C 147.546875 -57.878906 146.523438 -51.304688 144.484375 -45.078125 C 142.453125 -38.847656 139.644531 -33.015625 136.0625 -27.578125 L 149.390625 -16.296875 Z M 78.859375 -24.0625 C 82.066406 -24.0625 85.054688 -24.367188 87.828125 -24.984375 C 90.609375 -25.609375 93.234375 -26.472656 95.703125 -27.578125 L 74.796875 -45.546875 L 92.9375 -65.90625 L 114.21875 -46.65625 C 116.5625 -52.082031 117.734375 -58.003906 117.734375 -64.421875 L 117.734375 -64.796875 C 117.734375 -70.347656 116.773438 -75.59375 114.859375 -80.53125 C 112.953125 -85.46875 110.238281 -89.785156 106.71875 -93.484375 C 103.207031 -97.191406 99.046875 -100.125 94.234375 -102.28125 C 89.421875 -104.4375 84.175781 -105.515625 78.5 -105.515625 C 72.695312 -105.515625 67.414062 -104.46875 62.65625 -102.375 C 57.90625 -100.28125 53.832031 -97.378906 50.4375 -93.671875 C 47.050781 -89.972656 44.398438 -85.6875 42.484375 -80.8125 C 40.566406 -75.9375 39.609375 -70.71875 39.609375 -65.15625 L 39.609375 -64.796875 C 39.609375 -59.242188 40.566406 -54 42.484375 -49.0625 C 44.398438 -44.125 47.113281 -39.800781 50.625 -36.09375 C 54.144531 -32.394531 58.28125 -29.460938 63.03125 -27.296875 C 67.78125 -25.140625 73.054688 -24.0625 78.859375 -24.0625 Z M 78.859375 -24.0625 "/></g></g></g><g fill="#ffffff" fill-opacity="1"><g transform="translate(453.161163, 182.374873)"><g><path d="M 4.4375 -129.59375 L 35.921875 -129.59375 L 69.796875 -38.328125 L 103.671875 -129.59375 L 134.40625 -129.59375 L 82.015625 0.921875 L 56.828125 0.921875 Z M 4.4375 -129.59375 "/></g></g></g><g fill="#ffffff" fill-opacity="1"><g transform="translate(595.435338, 182.374873)"><g><path d="M 52.015625 -51.09375 L 2.21875 -129.59375 L 35.546875 -129.59375 L 66.453125 -77.5625 L 97.9375 -129.59375 L 130.328125 -129.59375 L 80.53125 -51.65625 L 80.53125 0 L 52.015625 0 Z M 52.015625 -51.09375 "/></g></g></g></svg>